<svg width="128" height="57" viewBox="0 0 128 57" fill="none" xmlns="http://www.w3.org/2000/svg">
<g filter="url(#filter0_d_1373_45806)">
<rect x="6" y="4" width="116" height="45" rx="22.5" fill="#D5C2FF" shape-rendering="crispEdges"/>
<mask id="mask0_1373_45806" style="mask-type:alpha" maskUnits="userSpaceOnUse" x="22" y="14" width="24" height="25">
<rect x="22" y="14.5" width="24" height="24" fill="#D9D9D9"/>
</mask>
<g mask="url(#mask0_1373_45806)">
<path d="M34 27.9905L28.7833 33.2072C28.5881 33.4024 28.3397 33.5 28.038 33.5C27.7364 33.5 27.488 33.4024 27.2928 33.2072C27.0976 33.012 27 32.7636 27 32.462C27 32.1603 27.0976 31.9119 27.2928 31.7167L32.5095 26.5L27.2928 21.2833C27.0976 21.0881 27 20.8397 27 20.538C27 20.2364 27.0976 19.988 27.2928 19.7928C27.488 19.5976 27.7364 19.5 28.038 19.5C28.3397 19.5 28.5881 19.5976 28.7833 19.7928L34 25.0095L39.2167 19.7928C39.4119 19.5976 39.6603 19.5 39.962 19.5C40.2636 19.5 40.512 19.5976 40.7072 19.7928C40.9024 19.988 41 20.2364 41 20.538C41 20.8397 40.9024 21.0881 40.7072 21.2833L35.4905 26.5L40.7072 31.7167C40.9024 31.9119 41 32.1603 41 32.462C41 32.7636 40.9024 33.012 40.7072 33.2072C40.512 33.4024 40.2636 33.5 39.962 33.5C39.6603 33.5 39.4119 33.4024 39.2167 33.2072L34 27.9905Z" fill="#272729"/>
</g>
<path d="M54.8594 26.5078V26.0938C54.8594 24.2031 55.2943 22.7839 56.1641 21.8359C57.0391 20.8828 58.1589 20.4062 59.5234 20.4062C60.8359 20.4062 61.8333 20.7474 62.5156 21.4297C63.2031 22.1068 63.6146 23.0182 63.75 24.1641L63.7578 24.2812H63.0625L63.0469 24.1719C62.9479 23.2969 62.6224 22.5573 62.0703 21.9531C61.5182 21.3438 60.6693 21.0391 59.5234 21.0391C58.3203 21.0391 57.3594 21.474 56.6406 22.3438C55.9219 23.2135 55.5625 24.4557 55.5625 26.0703V26.5234C55.5625 28.2422 55.9271 29.5156 56.6562 30.3438C57.3854 31.1719 58.3411 31.5859 59.5234 31.5859C60.7266 31.5859 61.5964 31.2786 62.1328 30.6641C62.6745 30.0443 62.9818 29.3073 63.0547 28.4531L63.0625 28.3438H63.7578L63.75 28.4609C63.651 29.5807 63.2526 30.487 62.5547 31.1797C61.8568 31.8724 60.8464 32.2188 59.5234 32.2188C58.1589 32.2188 57.0391 31.7526 56.1641 30.8203C55.2943 29.888 54.8594 28.4505 54.8594 26.5078ZM65.5469 32V20.125H66.2266V25.3203C66.5703 24.8672 66.9818 24.5078 67.4609 24.2422C67.9453 23.9714 68.5156 23.8359 69.1719 23.8359C70.0521 23.8359 70.7396 24.0599 71.2344 24.5078C71.7344 24.9557 71.9844 25.6979 71.9844 26.7344V32H71.3047V26.7266C71.3047 25.9245 71.1016 25.3464 70.6953 24.9922C70.2891 24.6328 69.7214 24.4531 68.9922 24.4531C68.3568 24.4531 67.8047 24.6094 67.3359 24.9219C66.8724 25.2344 66.5026 25.6224 66.2266 26.0859V32H65.5469ZM74.2891 32V24H74.9609V32H74.2891ZM74.0703 21.3438C74.0703 21.1875 74.1172 21.0573 74.2109 20.9531C74.3099 20.849 74.4479 20.7969 74.625 20.7969C74.8021 20.7969 74.9375 20.849 75.0312 20.9531C75.1302 21.0573 75.1797 21.1875 75.1797 21.3438C75.1797 21.5052 75.1302 21.638 75.0312 21.7422C74.9323 21.8464 74.7969 21.8984 74.625 21.8984C74.4479 21.8984 74.3099 21.8464 74.2109 21.7422C74.1172 21.638 74.0703 21.5052 74.0703 21.3438ZM77.3438 35.2891V24H77.9688L77.9844 25.1953H77.9922C78.263 24.8359 78.6615 24.5208 79.1875 24.25C79.7188 23.9792 80.3333 23.8438 81.0312 23.8438C82.1198 23.8438 82.9766 24.2214 83.6016 24.9766C84.2266 25.7266 84.5391 26.6927 84.5391 27.875V28.1016C84.5391 29.2943 84.2266 30.2682 83.6016 31.0234C82.9766 31.7786 82.1146 32.1562 81.0156 32.1562C80.3229 32.1562 79.724 32.0339 79.2188 31.7891C78.7188 31.5391 78.3203 31.2344 78.0234 30.875V35.2891H77.3438ZM78.0234 30.0234C78.237 30.4193 78.5859 30.7734 79.0703 31.0859C79.5599 31.3932 80.1432 31.5469 80.8203 31.5469C81.8464 31.5521 82.6068 31.237 83.1016 30.6016C83.6016 29.9661 83.8516 29.1354 83.8516 28.1094V27.8672C83.8516 26.8464 83.6042 26.0208 83.1094 25.3906C82.6198 24.7604 81.862 24.4479 80.8359 24.4531C80.1536 24.4531 79.5677 24.6068 79.0781 24.9141C78.5938 25.2214 78.2422 25.5729 78.0234 25.9688V30.0234ZM85.8281 29.6172H86.5V29.6875C86.5 30.349 86.7318 30.8359 87.1953 31.1484C87.6641 31.4557 88.2943 31.612 89.0859 31.6172C89.9089 31.6172 90.5339 31.4609 90.9609 31.1484C91.388 30.8307 91.6016 30.4193 91.6016 29.9141C91.6016 29.3984 91.4193 29.026 91.0547 28.7969C90.6953 28.5677 90.0104 28.3516 89 28.1484C88 27.9453 87.2682 27.6693 86.8047 27.3203C86.3411 26.9714 86.1094 26.5 86.1094 25.9062C86.1094 25.276 86.375 24.763 86.9062 24.3672C87.4427 23.9714 88.1745 23.7734 89.1016 23.7734C90.0286 23.7734 90.763 23.9922 91.3047 24.4297C91.8464 24.862 92.1172 25.4323 92.1172 26.1406V26.2188H91.4453V26.1719C91.4453 25.6094 91.2474 25.1719 90.8516 24.8594C90.4557 24.5417 89.8724 24.3828 89.1016 24.3828C88.3359 24.3828 87.7604 24.513 87.375 24.7734C86.9896 25.0339 86.7969 25.388 86.7969 25.8359C86.7969 26.2682 86.9661 26.6094 87.3047 26.8594C87.6484 27.1042 88.3203 27.3281 89.3203 27.5312C90.3359 27.7396 91.0859 28.013 91.5703 28.3516C92.0547 28.6849 92.2969 29.1875 92.2969 29.8594C92.2969 30.5365 92.0339 31.099 91.5078 31.5469C90.987 31.9948 90.1797 32.2188 89.0859 32.2188C88.0182 32.2188 87.2083 31.9974 86.6562 31.5547C86.1042 31.1068 85.8281 30.487 85.8281 29.6953V29.6172ZM101.203 32V21.2188L97.8828 22.4219V21.75L101.617 20.4688H101.898V32H101.203Z" fill="#272729"/>
</g>
<defs>
<filter id="filter0_d_1373_45806" x="0" y="0" width="128" height="57" filterUnits="userSpaceOnUse" color-interpolation-filters="sRGB">
<feFlood flood-opacity="0" result="BackgroundImageFix"/>
<feColorMatrix in="SourceAlpha" type="matrix" values="0 0 0 0 0 0 0 0 0 0 0 0 0 0 0 0 0 0 127 0" result="hardAlpha"/>
<feOffset dy="2"/>
<feGaussianBlur stdDeviation="3"/>
<feComposite in2="hardAlpha" operator="out"/>
<feColorMatrix type="matrix" values="0 0 0 0 0 0 0 0 0 0 0 0 0 0 0 0 0 0 0.25 0"/>
<feBlend mode="normal" in2="BackgroundImageFix" result="effect1_dropShadow_1373_45806"/>
<feBlend mode="normal" in="SourceGraphic" in2="effect1_dropShadow_1373_45806" result="shape"/>
</filter>
</defs>
</svg>
