<svg width="404" height="396" viewBox="0 0 404 396" fill="none" xmlns="http://www.w3.org/2000/svg">
<g filter="url(#filter0_d_1373_45802)">
<rect x="18" y="16" width="368" height="360" rx="20" fill="#FBFBFE" shape-rendering="crispEdges"/>
<mask id="mask0_1373_45802" style="mask-type:alpha" maskUnits="userSpaceOnUse" x="50" y="36" width="24" height="24">
<rect x="50" y="36" width="24" height="24" fill="#D9D9D9"/>
</mask>
<g mask="url(#mask0_1373_45802)">
<path d="M63.2099 53.704L58.2939 48.7534C58.187 48.6457 58.1113 48.5291 58.0668 48.4036C58.0223 48.278 58 48.1435 58 48C58 47.8565 58.0223 47.722 58.0668 47.5964C58.1113 47.4709 58.187 47.3543 58.2939 47.2466L63.2099 42.296C63.4059 42.0987 63.6552 42 63.958 42C64.2608 42 64.5102 42.0987 64.7061 42.296C64.902 42.4933 65 42.7444 65 43.0493C65 43.3543 64.902 43.6054 64.7061 43.8027L60.5382 48L64.7061 52.1973C64.902 52.3946 65 52.6457 65 52.9507C65 53.2556 64.902 53.5067 64.7061 53.704C64.5102 53.9013 64.2608 54 63.958 54C63.6552 54 63.4059 53.9013 63.2099 53.704Z" fill="#676769"/>
</g>
<path d="M151.305 50.0361V49.4824H153.607V49.9307C153.607 50.8213 153.815 51.46 154.231 51.8467C154.647 52.2334 155.289 52.4268 156.156 52.4268C157.064 52.4268 157.729 52.2041 158.151 51.7588C158.579 51.3076 158.793 50.6074 158.793 49.6582V41.2031H161.263V49.6758C161.263 51.1113 160.853 52.2334 160.032 53.042C159.212 53.8506 157.955 54.2549 156.262 54.2549C154.615 54.2549 153.376 53.9092 152.544 53.2178C151.718 52.5205 151.305 51.46 151.305 50.0361ZM163.706 50.625V45.501H166.097V50.3877C166.097 51.0615 166.261 51.5684 166.589 51.9082C166.923 52.248 167.406 52.418 168.039 52.418C168.684 52.418 169.249 52.2656 169.735 51.9609C170.222 51.6504 170.582 51.2842 170.816 50.8623V45.501H173.207V54H170.896L170.86 52.6289H170.843C170.556 53.0449 170.096 53.4199 169.463 53.7539C168.83 54.0879 168.086 54.2549 167.23 54.2549C166.146 54.2549 165.288 53.959 164.655 53.3672C164.022 52.7695 163.706 51.8555 163.706 50.625ZM175.686 54V45.501H178.006L178.023 46.8809H178.041C178.34 46.4531 178.797 46.0723 179.412 45.7383C180.033 45.4043 180.774 45.2373 181.636 45.2373C182.726 45.2373 183.59 45.5361 184.229 46.1338C184.867 46.7314 185.187 47.6484 185.187 48.8848V54H182.787V49.1221C182.787 48.4541 182.623 47.9561 182.295 47.6279C181.973 47.2939 181.486 47.127 180.836 47.127C180.215 47.127 179.658 47.2764 179.166 47.5752C178.674 47.8682 178.311 48.2285 178.076 48.6562V54H175.686ZM186.909 49.8076V49.6318C186.909 48.3018 187.398 47.2324 188.377 46.4238C189.361 45.6152 190.656 45.2109 192.262 45.2109C193.844 45.2109 195.074 45.5977 195.953 46.3711C196.832 47.1387 197.269 48.1729 197.263 49.4736V50.2295H188.289V48.8496H194.942V48.7969C194.942 48.2754 194.734 47.8418 194.318 47.4961C193.902 47.1445 193.211 46.9688 192.244 46.9688C191.266 46.9688 190.524 47.2002 190.021 47.6631C189.522 48.1201 189.273 48.7207 189.273 49.4648V49.8779C189.273 50.6982 189.534 51.3428 190.056 51.8115C190.577 52.2744 191.333 52.5059 192.323 52.5059C193.132 52.5059 193.776 52.3945 194.257 52.1719C194.743 51.9434 195.112 51.6797 195.364 51.3809L197.148 52.2422C196.814 52.8281 196.252 53.3115 195.461 53.6924C194.676 54.0732 193.636 54.2637 192.341 54.2637C190.659 54.2637 189.332 53.8623 188.359 53.0596C187.393 52.2568 186.909 51.1729 186.909 49.8076ZM203.793 54V52.5059L209.4 47.6455C209.939 47.1533 210.396 46.6641 210.771 46.1777C211.152 45.6855 211.343 45.1787 211.343 44.6572C211.343 44.0479 211.141 43.5908 210.736 43.2861C210.338 42.9756 209.734 42.8203 208.926 42.8203C208.082 42.8203 207.426 42.999 206.957 43.3564C206.488 43.708 206.254 44.2676 206.254 45.0352V45.2812H203.802V45C203.802 43.7988 204.262 42.8291 205.182 42.0908C206.107 41.3467 207.358 40.9746 208.935 40.9746C210.534 40.9746 211.75 41.3145 212.582 41.9941C213.42 42.668 213.842 43.5117 213.848 44.5254C213.848 45.4453 213.59 46.2363 213.074 46.8984C212.559 47.5605 211.914 48.2314 211.141 48.9111L207.467 52.1719H214.234V54H203.793ZM215.887 48.3223V46.7402C215.887 44.9062 216.376 43.4883 217.354 42.4863C218.339 41.4785 219.73 40.9746 221.529 40.9746C223.346 40.9746 224.743 41.4727 225.722 42.4688C226.706 43.459 227.198 44.8828 227.198 46.7402V48.3311C227.198 50.2412 226.697 51.7031 225.695 52.7168C224.699 53.7246 223.311 54.2285 221.529 54.2285C219.713 54.2285 218.318 53.7129 217.346 52.6816C216.373 51.6504 215.887 50.1973 215.887 48.3223ZM218.383 48.498C218.383 49.7695 218.641 50.7422 219.156 51.416C219.672 52.084 220.466 52.418 221.538 52.418C222.61 52.418 223.407 52.084 223.929 51.416C224.456 50.7422 224.72 49.7725 224.72 48.5068V46.5908C224.72 45.3662 224.453 44.4346 223.92 43.7959C223.393 43.1514 222.599 42.8291 221.538 42.8291C220.478 42.8291 219.687 43.1514 219.165 43.7959C218.644 44.4346 218.383 45.3662 218.383 46.5908V48.498ZM228.895 54V52.5059L234.502 47.6455C235.041 47.1533 235.498 46.6641 235.873 46.1777C236.254 45.6855 236.444 45.1787 236.444 44.6572C236.444 44.0479 236.242 43.5908 235.838 43.2861C235.439 42.9756 234.836 42.8203 234.027 42.8203C233.184 42.8203 232.527 42.999 232.059 43.3564C231.59 43.708 231.355 44.2676 231.355 45.0352V45.2812H228.903V45C228.903 43.7988 229.363 42.8291 230.283 42.0908C231.209 41.3467 232.46 40.9746 234.036 40.9746C235.636 40.9746 236.852 41.3145 237.684 41.9941C238.521 42.668 238.943 43.5117 238.949 44.5254C238.949 45.4453 238.691 46.2363 238.176 46.8984C237.66 47.5605 237.016 48.2314 236.242 48.9111L232.568 52.1719H239.336V54H228.895ZM241.155 50.4668V50.124H243.572V50.4316C243.572 51.0879 243.833 51.5889 244.354 51.9346C244.882 52.2803 245.597 52.4531 246.499 52.4531C247.378 52.4531 248.075 52.2832 248.591 51.9434C249.112 51.5977 249.373 51.0439 249.373 50.2822C249.373 49.5498 249.083 49.0107 248.503 48.665C247.929 48.3193 247.129 48.1465 246.104 48.1465H244.636V46.582H246.024C246.851 46.582 247.542 46.4238 248.099 46.1074C248.655 45.7852 248.934 45.2754 248.934 44.5781C248.934 43.9805 248.717 43.5322 248.283 43.2334C247.855 42.9287 247.252 42.7764 246.473 42.7764C245.664 42.7764 245.031 42.9346 244.574 43.251C244.123 43.5615 243.897 44.0215 243.897 44.6309V44.8594H241.516V44.5869C241.516 43.4854 241.961 42.6094 242.852 41.959C243.748 41.3027 244.967 40.9746 246.508 40.9746C248.072 40.9746 249.276 41.2822 250.12 41.8975C250.97 42.5068 251.395 43.3125 251.395 44.3145C251.395 45.0469 251.178 45.6621 250.744 46.1602C250.316 46.6523 249.71 47.0127 248.925 47.2412V47.2764C249.786 47.4346 250.498 47.7773 251.061 48.3047C251.623 48.8262 251.904 49.5205 251.904 50.3877C251.904 51.5479 251.424 52.4795 250.463 53.1826C249.502 53.8799 248.187 54.2285 246.517 54.2285C244.835 54.2285 243.52 53.8887 242.57 53.209C241.627 52.5234 241.155 51.6094 241.155 50.4668Z" fill="#272729"/>
<mask id="mask1_1373_45802" style="mask-type:alpha" maskUnits="userSpaceOnUse" x="330" y="36" width="24" height="24">
<rect x="330" y="36" width="24" height="24" fill="#D9D9D9"/>
</mask>
<g mask="url(#mask1_1373_45802)">
<path d="M338.294 53.704C338.098 53.5067 338 53.2556 338 52.9507C338 52.6457 338.098 52.3946 338.294 52.1973L342.462 48L338.294 43.8027C338.098 43.6054 338 43.3543 338 43.0493C338 42.7444 338.098 42.4933 338.294 42.296C338.49 42.0987 338.739 42 339.042 42C339.345 42 339.594 42.0987 339.79 42.296L344.706 47.2466C344.813 47.3543 344.889 47.4709 344.933 47.5964C344.978 47.722 345 47.8565 345 48C345 48.1435 344.978 48.278 344.933 48.4036C344.889 48.5291 344.813 48.6457 344.706 48.7534L339.79 53.704C339.594 53.9013 339.345 54 339.042 54C338.739 54 338.49 53.9013 338.294 53.704Z" fill="#676769"/>
</g>
<rect width="336" height="48" transform="translate(34 72)" fill="#FBFBFE"/>
<path d="M42.1641 98.4062L42.1406 98H44.25L44.2812 98.2969C44.3281 98.9375 44.612 99.4062 45.1328 99.7031C45.6536 99.9948 46.4635 100.141 47.5625 100.141C48.6562 100.141 49.4479 99.987 49.9375 99.6797C50.4323 99.3724 50.6797 98.9635 50.6797 98.4531C50.6797 97.9896 50.4245 97.6354 49.9141 97.3906C49.4036 97.1406 48.4089 96.8828 46.9297 96.6172C45.2995 96.3151 44.1328 95.8984 43.4297 95.3672C42.7318 94.8307 42.3828 94.1016 42.3828 93.1797C42.3828 92.1849 42.7995 91.3906 43.6328 90.7969C44.4661 90.1979 45.6927 89.8984 47.3125 89.8984C48.9427 89.8984 50.1901 90.1901 51.0547 90.7734C51.9193 91.3568 52.3828 92.1589 52.4453 93.1797L52.4609 93.4609H50.3828L50.3594 93.2578C50.3177 92.737 50.0755 92.3177 49.6328 92C49.1901 91.6771 48.4245 91.5156 47.3359 91.5156C46.3255 91.5156 45.6042 91.6536 45.1719 91.9297C44.7448 92.2005 44.5312 92.5625 44.5312 93.0156C44.5312 93.4323 44.7734 93.7708 45.2578 94.0312C45.7474 94.2865 46.737 94.5443 48.2266 94.8047C49.8516 95.112 51.0234 95.5078 51.7422 95.9922C52.4609 96.4714 52.8203 97.2188 52.8203 98.2344C52.8203 99.3333 52.3698 100.19 51.4688 100.805C50.5729 101.419 49.2812 101.727 47.5938 101.727C45.901 101.727 44.5833 101.448 43.6406 100.891C42.7031 100.328 42.2109 99.5 42.1641 98.4062ZM54.2422 98.5V93.9453H56.3672V98.2891C56.3672 98.888 56.513 99.3385 56.8047 99.6406C57.1016 99.9427 57.5312 100.094 58.0938 100.094C58.6667 100.094 59.1693 99.9583 59.6016 99.6875C60.0339 99.4115 60.3542 99.0859 60.5625 98.7109V93.9453H62.6875V101.5H60.6328L60.6016 100.281H60.5859C60.3307 100.651 59.9219 100.984 59.3594 101.281C58.7969 101.578 58.1354 101.727 57.375 101.727C56.4115 101.727 55.6484 101.464 55.0859 100.938C54.5234 100.406 54.2422 99.5938 54.2422 98.5ZM64.8906 101.5V93.9453H66.9531L66.9688 95.1719H66.9844C67.25 94.7917 67.6562 94.4531 68.2031 94.1562C68.7552 93.8594 69.4141 93.7109 70.1797 93.7109C71.1484 93.7109 71.9167 93.9766 72.4844 94.5078C73.0521 95.0391 73.3359 95.8542 73.3359 96.9531V101.5H71.2031V97.1641C71.2031 96.5703 71.0573 96.1276 70.7656 95.8359C70.4792 95.5391 70.0469 95.3906 69.4688 95.3906C68.9167 95.3906 68.4219 95.5234 67.9844 95.7891C67.5469 96.0495 67.224 96.3698 67.0156 96.75V101.5H64.8906Z" fill="#676769"/>
<path d="M88.1719 101.5V90.125H90.7266L95.0234 98.2422C95.1016 98.3984 95.1667 98.5339 95.2188 98.6484C95.2708 98.7578 95.3125 98.862 95.3438 98.9609H95.375C95.4062 98.862 95.4453 98.7578 95.4922 98.6484C95.5391 98.5339 95.6042 98.3984 95.6875 98.2422L99.9844 90.125H102.586V101.5H100.43L100.445 93.8594C100.445 93.7292 100.448 93.6016 100.453 93.4766C100.458 93.3464 100.464 93.2188 100.469 93.0938H100.422C100.385 93.2188 100.344 93.3464 100.297 93.4766C100.25 93.6016 100.198 93.7266 100.141 93.8516L96.125 101.5H94.4844L90.4531 93.8516C90.3802 93.7161 90.3229 93.5859 90.2812 93.4609C90.2396 93.3359 90.1953 93.2057 90.1484 93.0703H90.1094C90.1146 93.2109 90.1198 93.3438 90.125 93.4688C90.1354 93.5938 90.1406 93.724 90.1406 93.8594L90.1484 101.5H88.1719ZM104.5 97.7812V97.6172C104.5 96.4401 104.94 95.4922 105.82 94.7734C106.706 94.0495 107.87 93.6875 109.312 93.6875C110.766 93.6875 111.93 94.0495 112.805 94.7734C113.685 95.4922 114.125 96.4401 114.125 97.6172V97.7812C114.125 98.9844 113.685 99.9427 112.805 100.656C111.93 101.37 110.766 101.727 109.312 101.727C107.865 101.727 106.701 101.37 105.82 100.656C104.94 99.9427 104.5 98.9844 104.5 97.7812ZM106.664 97.5859V97.8438C106.664 98.5469 106.891 99.1068 107.344 99.5234C107.797 99.9401 108.453 100.148 109.312 100.148C110.177 100.148 110.833 99.9401 111.281 99.5234C111.734 99.1068 111.961 98.5443 111.961 97.8359V97.5859C111.961 96.8828 111.734 96.3255 111.281 95.9141C110.828 95.5026 110.172 95.2969 109.312 95.2969C108.458 95.2969 107.802 95.5026 107.344 95.9141C106.891 96.3255 106.664 96.8828 106.664 97.5859ZM115.766 101.5V93.9453H117.828L117.844 95.1719H117.859C118.125 94.7917 118.531 94.4531 119.078 94.1562C119.63 93.8594 120.289 93.7109 121.055 93.7109C122.023 93.7109 122.792 93.9766 123.359 94.5078C123.927 95.0391 124.211 95.8542 124.211 96.9531V101.5H122.078V97.1641C122.078 96.5703 121.932 96.1276 121.641 95.8359C121.354 95.5391 120.922 95.3906 120.344 95.3906C119.792 95.3906 119.297 95.5234 118.859 95.7891C118.422 96.0495 118.099 96.3698 117.891 96.75V101.5H115.766Z" fill="#676769"/>
<path d="M138.742 91.875V90.125H149.562V91.875H145.258V101.5H143.047V91.875H138.742ZM149.734 98.5V93.9453H151.859V98.2891C151.859 98.888 152.005 99.3385 152.297 99.6406C152.594 99.9427 153.023 100.094 153.586 100.094C154.159 100.094 154.661 99.9583 155.094 99.6875C155.526 99.4115 155.846 99.0859 156.055 98.7109V93.9453H158.18V101.5H156.125L156.094 100.281H156.078C155.823 100.651 155.414 100.984 154.852 101.281C154.289 101.578 153.628 101.727 152.867 101.727C151.904 101.727 151.141 101.464 150.578 100.938C150.016 100.406 149.734 99.5938 149.734 98.5ZM159.828 97.7734V97.6172C159.828 96.4349 160.263 95.4844 161.133 94.7656C162.008 94.0469 163.159 93.6875 164.586 93.6875C165.992 93.6875 167.086 94.0312 167.867 94.7188C168.648 95.401 169.036 96.3203 169.031 97.4766V98.1484H161.055V96.9219H166.969V96.875C166.969 96.4115 166.784 96.026 166.414 95.7188C166.044 95.4062 165.43 95.25 164.57 95.25C163.701 95.25 163.042 95.4557 162.594 95.8672C162.151 96.2734 161.93 96.8073 161.93 97.4688V97.8359C161.93 98.5651 162.161 99.138 162.625 99.5547C163.089 99.9661 163.76 100.172 164.641 100.172C165.359 100.172 165.932 100.073 166.359 99.875C166.792 99.6719 167.12 99.4375 167.344 99.1719L168.93 99.9375C168.633 100.458 168.133 100.888 167.43 101.227C166.732 101.565 165.807 101.734 164.656 101.734C163.161 101.734 161.982 101.378 161.117 100.664C160.258 99.9505 159.828 98.987 159.828 97.7734Z" fill="#676769"/>
<path d="M186.375 101.547L182.812 90.125H185.008L187.57 98.5625C187.607 98.6875 187.635 98.7995 187.656 98.8984C187.682 98.9974 187.708 99.112 187.734 99.2422H187.766C187.792 99.112 187.815 98.9974 187.836 98.8984C187.862 98.7995 187.893 98.6875 187.93 98.5625L190.633 90.125H192.75L195.531 98.5703C195.573 98.6953 195.604 98.8099 195.625 98.9141C195.646 99.013 195.669 99.1224 195.695 99.2422H195.734C195.755 99.1224 195.776 99.0104 195.797 98.9062C195.818 98.8021 195.846 98.6901 195.883 98.5703L198.383 90.125H200.406L196.844 101.547H194.57L191.805 93.1719C191.768 93.0521 191.737 92.9349 191.711 92.8203C191.685 92.7057 191.661 92.5885 191.641 92.4688H191.602C191.581 92.5885 191.557 92.7057 191.531 92.8203C191.505 92.9349 191.477 93.0521 191.445 93.1719L188.695 101.547H186.375ZM200.742 97.7734V97.6172C200.742 96.4349 201.177 95.4844 202.047 94.7656C202.922 94.0469 204.073 93.6875 205.5 93.6875C206.906 93.6875 208 94.0312 208.781 94.7188C209.562 95.401 209.951 96.3203 209.945 97.4766V98.1484H201.969V96.9219H207.883V96.875C207.883 96.4115 207.698 96.026 207.328 95.7188C206.958 95.4062 206.344 95.25 205.484 95.25C204.615 95.25 203.956 95.4557 203.508 95.8672C203.065 96.2734 202.844 96.8073 202.844 97.4688V97.8359C202.844 98.5651 203.076 99.138 203.539 99.5547C204.003 99.9661 204.674 100.172 205.555 100.172C206.273 100.172 206.846 100.073 207.273 99.875C207.706 99.6719 208.034 99.4375 208.258 99.1719L209.844 99.9375C209.547 100.458 209.047 100.888 208.344 101.227C207.646 101.565 206.721 101.734 205.57 101.734C204.076 101.734 202.896 101.378 202.031 100.664C201.172 99.9505 200.742 98.987 200.742 97.7734ZM210.875 97.7812V97.5938C210.875 96.4479 211.247 95.5208 211.992 94.8125C212.737 94.1042 213.729 93.75 214.969 93.75C215.734 93.75 216.378 93.8724 216.898 94.1172C217.424 94.3568 217.807 94.6302 218.047 94.9375V89.8984H220.109V101.5H218.078L218.055 100.508H218.031C217.776 100.836 217.388 101.117 216.867 101.352C216.346 101.581 215.711 101.695 214.961 101.695C213.711 101.695 212.716 101.344 211.977 100.641C211.242 99.9375 210.875 98.9844 210.875 97.7812ZM213.039 97.8125C213.039 98.5469 213.242 99.1172 213.648 99.5234C214.06 99.9297 214.688 100.133 215.531 100.133C216.172 100.133 216.706 100.013 217.133 99.7734C217.565 99.5339 217.859 99.2708 218.016 98.9844V96.4531C217.833 96.1406 217.526 95.875 217.094 95.6562C216.667 95.4323 216.146 95.3203 215.531 95.3203C214.672 95.3203 214.042 95.5312 213.641 95.9531C213.24 96.3698 213.039 96.9219 213.039 97.6094V97.8125Z" fill="#676769"/>
<path d="M234.062 91.875V90.125H244.883V91.875H240.578V101.5H238.367V91.875H234.062ZM246.141 101.5V89.8984H248.258V95.2266C248.523 94.8516 248.93 94.5078 249.477 94.1953C250.023 93.8776 250.68 93.7188 251.445 93.7188C252.43 93.7188 253.198 93.987 253.75 94.5234C254.302 95.0547 254.576 95.8568 254.57 96.9297V101.5H252.445V97.1953C252.445 96.6016 252.299 96.1536 252.008 95.8516C251.716 95.5443 251.286 95.3906 250.719 95.3906C250.141 95.3906 249.638 95.526 249.211 95.7969C248.784 96.0625 248.469 96.388 248.266 96.7734V101.5H246.141ZM256.555 98.5V93.9453H258.68V98.2891C258.68 98.888 258.826 99.3385 259.117 99.6406C259.414 99.9427 259.844 100.094 260.406 100.094C260.979 100.094 261.482 99.9583 261.914 99.6875C262.346 99.4115 262.667 99.0859 262.875 98.7109V93.9453H265V101.5H262.945L262.914 100.281H262.898C262.643 100.651 262.234 100.984 261.672 101.281C261.109 101.578 260.448 101.727 259.688 101.727C258.724 101.727 257.961 101.464 257.398 100.938C256.836 100.406 256.555 99.5938 256.555 98.5Z" fill="#676769"/>
<path d="M288.602 101.5V90.125H297.117V91.8516H290.789V95.125H296.516V96.7344H290.789V101.5H288.602ZM298.211 101.5V93.9453H300.305L300.32 95.3906H300.352C300.586 94.9427 300.956 94.5495 301.461 94.2109C301.966 93.8724 302.534 93.7031 303.164 93.7031C303.445 93.7031 303.677 93.724 303.859 93.7656C304.042 93.8073 304.188 93.849 304.297 93.8906V95.6562C304.151 95.599 303.987 95.5547 303.805 95.5234C303.628 95.487 303.398 95.4688 303.117 95.4688C302.518 95.4688 301.974 95.625 301.484 95.9375C300.995 96.2448 300.625 96.6328 300.375 97.1016V101.5H298.211ZM305.5 101.5V93.9453H307.648V101.5H305.5ZM305.305 91.4609C305.305 91.1276 305.414 90.849 305.633 90.625C305.852 90.401 306.164 90.2891 306.57 90.2891C306.982 90.2891 307.294 90.401 307.508 90.625C307.727 90.8438 307.836 91.1224 307.836 91.4609C307.836 91.7943 307.727 92.0781 307.508 92.3125C307.289 92.5417 306.977 92.6562 306.57 92.6562C306.164 92.6562 305.852 92.5417 305.633 92.3125C305.414 92.0781 305.305 91.7943 305.305 91.4609Z" fill="#676769"/>
<path d="M332.266 98.4062L332.242 98H334.352L334.383 98.2969C334.43 98.9375 334.714 99.4062 335.234 99.7031C335.755 99.9948 336.565 100.141 337.664 100.141C338.758 100.141 339.549 99.987 340.039 99.6797C340.534 99.3724 340.781 98.9635 340.781 98.4531C340.781 97.9896 340.526 97.6354 340.016 97.3906C339.505 97.1406 338.51 96.8828 337.031 96.6172C335.401 96.3151 334.234 95.8984 333.531 95.3672C332.833 94.8307 332.484 94.1016 332.484 93.1797C332.484 92.1849 332.901 91.3906 333.734 90.7969C334.568 90.1979 335.794 89.8984 337.414 89.8984C339.044 89.8984 340.292 90.1901 341.156 90.7734C342.021 91.3568 342.484 92.1589 342.547 93.1797L342.562 93.4609H340.484L340.461 93.2578C340.419 92.737 340.177 92.3177 339.734 92C339.292 91.6771 338.526 91.5156 337.438 91.5156C336.427 91.5156 335.706 91.6536 335.273 91.9297C334.846 92.2005 334.633 92.5625 334.633 93.0156C334.633 93.4323 334.875 93.7708 335.359 94.0312C335.849 94.2865 336.839 94.5443 338.328 94.8047C339.953 95.112 341.125 95.5078 341.844 95.9922C342.562 96.4714 342.922 97.2188 342.922 98.2344C342.922 99.3333 342.471 100.19 341.57 100.805C340.674 101.419 339.383 101.727 337.695 101.727C336.003 101.727 334.685 101.448 333.742 100.891C332.805 100.328 332.312 99.5 332.266 98.4062ZM343.922 99.25C343.922 98.474 344.229 97.8802 344.844 97.4688C345.464 97.0573 346.372 96.8542 347.57 96.8594L350.383 96.8828V96.2578C350.383 95.8724 350.237 95.5807 349.945 95.3828C349.659 95.1849 349.164 95.0859 348.461 95.0859C347.815 95.0859 347.333 95.1771 347.016 95.3594C346.703 95.5417 346.547 95.7969 346.547 96.125V96.3047L344.547 96.2969V96.0859C344.547 95.3672 344.904 94.7891 345.617 94.3516C346.331 93.9141 347.323 93.6953 348.594 93.6953C349.906 93.6953 350.885 93.9141 351.531 94.3516C352.177 94.7839 352.5 95.4688 352.5 96.4062V99.7266C352.5 100.049 352.529 100.357 352.586 100.648C352.643 100.935 352.727 101.18 352.836 101.383V101.5H350.734C350.656 101.375 350.591 101.219 350.539 101.031C350.487 100.839 350.451 100.615 350.43 100.359C350.211 100.693 349.815 100.987 349.242 101.242C348.669 101.492 347.943 101.617 347.062 101.617C346.062 101.617 345.289 101.411 344.742 101C344.195 100.583 343.922 100 343.922 99.25ZM346.031 99.1172C346.031 99.4974 346.169 99.7891 346.445 99.9922C346.721 100.195 347.167 100.297 347.781 100.297C348.448 100.297 349.049 100.143 349.586 99.8359C350.122 99.5234 350.391 99.125 350.391 98.6406V98.0547L348.094 98.0391C347.385 98.0339 346.865 98.1172 346.531 98.2891C346.198 98.4557 346.031 98.7318 346.031 99.1172ZM353.578 95.5469V93.9453H359.859V95.5469H353.578ZM355.32 99.1094V94.4844L355.367 94.3438V91.6094H357.414V98.7266C357.414 99.2161 357.523 99.5677 357.742 99.7812C357.961 99.9896 358.273 100.094 358.68 100.094C358.945 100.094 359.159 100.076 359.32 100.039C359.487 99.9974 359.641 99.9557 359.781 99.9141L359.875 101.414C359.714 101.477 359.495 101.536 359.219 101.594C358.948 101.656 358.56 101.688 358.055 101.688C357.242 101.688 356.583 101.477 356.078 101.055C355.573 100.628 355.32 99.9792 355.32 99.1094Z" fill="#676769"/>
<rect width="48" height="48" transform="translate(34 120)" fill="#FBFBFE"/>
<path d="M49.7656 149.5V148.93L54.4062 144.32C54.9323 143.789 55.3672 143.247 55.7109 142.695C56.0547 142.143 56.2266 141.542 56.2266 140.891C56.2266 140.271 55.987 139.721 55.5078 139.242C55.0286 138.763 54.3542 138.526 53.4844 138.531C52.5885 138.536 51.862 138.781 51.3047 139.266C50.7474 139.745 50.4688 140.422 50.4688 141.297V141.43H49.7812V141.305C49.7812 140.289 50.1198 139.469 50.7969 138.844C51.4792 138.219 52.3776 137.906 53.4922 137.906C54.5599 137.906 55.3958 138.203 56 138.797C56.6094 139.391 56.9141 140.081 56.9141 140.867C56.9141 141.633 56.7344 142.312 56.375 142.906C56.0208 143.5 55.5078 144.128 54.8359 144.789L50.7109 148.914H57.3125V149.5H49.7656ZM58.3984 141.734C58.3984 140.578 58.75 139.651 59.4531 138.953C60.1615 138.255 61.0781 137.906 62.2031 137.906C63.3854 137.906 64.3542 138.323 65.1094 139.156C65.8698 139.99 66.25 141.245 66.25 142.922V143.156C66.25 145.078 65.6823 146.628 64.5469 147.805C63.4167 148.982 61.9661 149.57 60.1953 149.57H60.0078V148.945H60.1875C61.7344 148.945 63.0156 148.443 64.0312 147.438C65.0521 146.432 65.5625 145.021 65.5625 143.203V142.859C65.5625 141.297 65.2474 140.185 64.6172 139.523C63.987 138.857 63.1823 138.523 62.2031 138.523C61.224 138.523 60.4609 138.805 59.9141 139.367C59.3672 139.924 59.0938 140.714 59.0938 141.734C59.0938 142.688 59.3542 143.422 59.875 143.938C60.401 144.448 61.1354 144.703 62.0781 144.703C63.0208 144.703 63.8385 144.419 64.5312 143.852C65.224 143.279 65.5755 142.568 65.5859 141.719H65.8984C65.8932 142.76 65.513 143.622 64.7578 144.305C64.0078 144.987 63.0703 145.328 61.9453 145.328C60.8568 145.328 59.9922 145.003 59.3516 144.352C58.7161 143.695 58.3984 142.823 58.3984 141.734Z" fill="#A5A5A7"/>
<rect width="48" height="48" transform="translate(82 120)" fill="#FBFBFE"/>
<path d="M97.6172 146.539V146.438H98.2969V146.531C98.2969 147.339 98.5859 147.969 99.1641 148.422C99.7422 148.875 100.482 149.102 101.383 149.102C102.253 149.102 102.982 148.872 103.57 148.414C104.164 147.956 104.461 147.312 104.461 146.484C104.461 145.599 104.128 144.945 103.461 144.523C102.799 144.096 102.008 143.883 101.086 143.883H99.9531V143.266H101.008C101.883 143.266 102.604 143.055 103.172 142.633C103.74 142.206 104.023 141.63 104.023 140.906C104.023 140.135 103.776 139.544 103.281 139.133C102.786 138.721 102.156 138.518 101.391 138.523C100.625 138.523 99.9714 138.742 99.4297 139.18C98.8932 139.612 98.625 140.188 98.625 140.906V141.055H97.9531V140.906C97.9531 140.026 98.2839 139.307 98.9453 138.75C99.612 138.188 100.427 137.906 101.391 137.906C102.359 137.906 103.156 138.18 103.781 138.727C104.406 139.268 104.719 139.987 104.719 140.883C104.719 141.497 104.529 142.039 104.148 142.508C103.773 142.971 103.234 143.315 102.531 143.539V143.57C103.26 143.69 103.883 143.992 104.398 144.477C104.914 144.961 105.172 145.641 105.172 146.516C105.172 147.453 104.812 148.221 104.094 148.82C103.375 149.419 102.471 149.721 101.383 149.727C100.32 149.732 99.4271 149.448 98.7031 148.875C97.9792 148.302 97.6172 147.523 97.6172 146.539ZM106.836 145.594V142.031C106.836 140.714 107.151 139.698 107.781 138.984C108.411 138.266 109.292 137.906 110.422 137.906C111.552 137.906 112.432 138.266 113.062 138.984C113.698 139.698 114.016 140.714 114.016 142.031V145.602C114.016 146.924 113.698 147.943 113.062 148.656C112.432 149.365 111.552 149.719 110.422 149.719C109.292 149.719 108.411 149.365 107.781 148.656C107.151 147.943 106.836 146.922 106.836 145.594ZM107.539 145.625C107.539 146.714 107.784 147.565 108.273 148.18C108.768 148.789 109.484 149.094 110.422 149.094C111.359 149.094 112.076 148.789 112.57 148.18C113.07 147.565 113.32 146.714 113.32 145.625V142.016C113.32 140.943 113.07 140.094 112.57 139.469C112.076 138.844 111.359 138.531 110.422 138.531C109.479 138.531 108.763 138.844 108.273 139.469C107.784 140.094 107.539 140.945 107.539 142.023V145.625Z" fill="#A5A5A7"/>
<rect width="48" height="48" transform="translate(130 120)" fill="#FBFBFE"/>
<path d="M145.617 146.539V146.438H146.297V146.531C146.297 147.339 146.586 147.969 147.164 148.422C147.742 148.875 148.482 149.102 149.383 149.102C150.253 149.102 150.982 148.872 151.57 148.414C152.164 147.956 152.461 147.312 152.461 146.484C152.461 145.599 152.128 144.945 151.461 144.523C150.799 144.096 150.008 143.883 149.086 143.883H147.953V143.266H149.008C149.883 143.266 150.604 143.055 151.172 142.633C151.74 142.206 152.023 141.63 152.023 140.906C152.023 140.135 151.776 139.544 151.281 139.133C150.786 138.721 150.156 138.518 149.391 138.523C148.625 138.523 147.971 138.742 147.43 139.18C146.893 139.612 146.625 140.188 146.625 140.906V141.055H145.953V140.906C145.953 140.026 146.284 139.307 146.945 138.75C147.612 138.188 148.427 137.906 149.391 137.906C150.359 137.906 151.156 138.18 151.781 138.727C152.406 139.268 152.719 139.987 152.719 140.883C152.719 141.497 152.529 142.039 152.148 142.508C151.773 142.971 151.234 143.315 150.531 143.539V143.57C151.26 143.69 151.883 143.992 152.398 144.477C152.914 144.961 153.172 145.641 153.172 146.516C153.172 147.453 152.812 148.221 152.094 148.82C151.375 149.419 150.471 149.721 149.383 149.727C148.32 149.732 147.427 149.448 146.703 148.875C145.979 148.302 145.617 147.523 145.617 146.539ZM158.547 149.5V138.719L155.227 139.922V139.25L158.961 137.969H159.242V149.5H158.547Z" fill="#A5A5A7"/>
<rect width="48" height="48" transform="translate(178 120)" fill="#FBFBFE"/>
<path d="M202.094 149.5V138.719L198.773 139.922V139.25L202.508 137.969H202.789V149.5H202.094Z" fill="#272729"/>
<rect width="48" height="48" transform="translate(226 120)" fill="#FBFBFE"/>
<path d="M246.266 149.5V148.93L250.906 144.32C251.432 143.789 251.867 143.247 252.211 142.695C252.555 142.143 252.727 141.542 252.727 140.891C252.727 140.271 252.487 139.721 252.008 139.242C251.529 138.763 250.854 138.526 249.984 138.531C249.089 138.536 248.362 138.781 247.805 139.266C247.247 139.745 246.969 140.422 246.969 141.297V141.43H246.281V141.305C246.281 140.289 246.62 139.469 247.297 138.844C247.979 138.219 248.878 137.906 249.992 137.906C251.06 137.906 251.896 138.203 252.5 138.797C253.109 139.391 253.414 140.081 253.414 140.867C253.414 141.633 253.234 142.312 252.875 142.906C252.521 143.5 252.008 144.128 251.336 144.789L247.211 148.914H253.812V149.5H246.266Z" fill="#272729"/>
<rect width="48" height="48" transform="translate(274 120)" fill="#FBFBFE"/>
<path d="M294.117 146.539V146.438H294.797V146.531C294.797 147.339 295.086 147.969 295.664 148.422C296.242 148.875 296.982 149.102 297.883 149.102C298.753 149.102 299.482 148.872 300.07 148.414C300.664 147.956 300.961 147.312 300.961 146.484C300.961 145.599 300.628 144.945 299.961 144.523C299.299 144.096 298.508 143.883 297.586 143.883H296.453V143.266H297.508C298.383 143.266 299.104 143.055 299.672 142.633C300.24 142.206 300.523 141.63 300.523 140.906C300.523 140.135 300.276 139.544 299.781 139.133C299.286 138.721 298.656 138.518 297.891 138.523C297.125 138.523 296.471 138.742 295.93 139.18C295.393 139.612 295.125 140.188 295.125 140.906V141.055H294.453V140.906C294.453 140.026 294.784 139.307 295.445 138.75C296.112 138.188 296.927 137.906 297.891 137.906C298.859 137.906 299.656 138.18 300.281 138.727C300.906 139.268 301.219 139.987 301.219 140.883C301.219 141.497 301.029 142.039 300.648 142.508C300.273 142.971 299.734 143.315 299.031 143.539V143.57C299.76 143.69 300.383 143.992 300.898 144.477C301.414 144.961 301.672 145.641 301.672 146.516C301.672 147.453 301.312 148.221 300.594 148.82C299.875 149.419 298.971 149.721 297.883 149.727C296.82 149.732 295.927 149.448 295.203 148.875C294.479 148.302 294.117 147.523 294.117 146.539Z" fill="#272729"/>
<rect width="48" height="48" transform="translate(322 120)" fill="#FBFBFE"/>
<path d="M347.656 149.5V146.445V146.273V139.156H347.594L342.805 146.047H347.773H348.07H350.07V146.672H341.984V146.055L347.648 138.125H348.336V149.5H347.656Z" fill="#272729"/>
<rect width="48" height="48" transform="translate(34 168)" fill="#FBFBFE"/>
<path d="M54.1875 194.648V194.539H54.8594V194.633C54.8594 195.388 55.1484 195.99 55.7266 196.438C56.3047 196.88 57.0547 197.102 57.9766 197.102C58.8984 197.102 59.6406 196.823 60.2031 196.266C60.7708 195.703 61.0547 194.904 61.0547 193.867C61.0547 192.893 60.7734 192.159 60.2109 191.664C59.6536 191.169 58.9193 190.922 58.0078 190.922C57.4974 190.917 56.9844 191.044 56.4688 191.305C55.9583 191.56 55.5495 191.865 55.2422 192.219L54.6094 191.922L55.2031 186.125H61.1562V186.773H55.7812L55.2656 191.586C55.5208 191.268 55.9193 190.977 56.4609 190.711C57.0078 190.44 57.5755 190.305 58.1641 190.305C59.1901 190.305 60.0443 190.612 60.7266 191.227C61.4089 191.841 61.75 192.721 61.75 193.867C61.75 195.081 61.3984 196.026 60.6953 196.703C59.9974 197.38 59.0911 197.719 57.9766 197.719C56.888 197.719 55.9844 197.443 55.2656 196.891C54.5469 196.339 54.1875 195.591 54.1875 194.648Z" fill="#272729"/>
<rect width="48" height="48" transform="translate(82 168)" fill="#FBFBFE"/>
<path d="M102.109 192.703V192.469C102.109 190.448 102.669 188.849 103.789 187.672C104.909 186.495 106.37 185.906 108.172 185.906H108.344V186.531H108.172C106.62 186.531 105.336 187.036 104.32 188.047C103.305 189.052 102.797 190.51 102.797 192.422V192.766C102.797 194.328 103.12 195.443 103.766 196.109C104.411 196.771 105.221 197.102 106.195 197.102C107.174 197.102 107.93 196.823 108.461 196.266C108.992 195.703 109.258 194.911 109.258 193.891C109.258 192.932 108.995 192.198 108.469 191.688C107.943 191.172 107.208 190.914 106.266 190.914C105.333 190.914 104.518 191.201 103.82 191.773C103.128 192.341 102.776 193.049 102.766 193.898H102.461C102.466 192.857 102.844 191.995 103.594 191.312C104.344 190.63 105.281 190.289 106.406 190.289C107.5 190.289 108.365 190.615 109 191.266C109.635 191.917 109.953 192.792 109.953 193.891C109.953 195.047 109.609 195.974 108.922 196.672C108.24 197.37 107.333 197.719 106.203 197.719C105.016 197.719 104.036 197.302 103.266 196.469C102.495 195.635 102.109 194.38 102.109 192.703Z" fill="#272729"/>
<rect width="48" height="48" transform="translate(130 168)" fill="#FBFBFE"/>
<path d="M152.18 197.5L156.875 186.75H149.867V186.125H157.625V186.641L152.93 197.5H152.18Z" fill="#272729"/>
<rect width="48" height="48" transform="translate(178 168)" fill="#FBFBFE"/>
<path d="M198.156 194.539C198.156 193.773 198.398 193.148 198.883 192.664C199.372 192.18 199.971 191.849 200.68 191.672V191.641C200.081 191.484 199.576 191.161 199.164 190.672C198.753 190.182 198.547 189.604 198.547 188.938C198.547 188.005 198.875 187.268 199.531 186.727C200.193 186.18 201.003 185.906 201.961 185.906C202.924 185.906 203.737 186.182 204.398 186.734C205.065 187.286 205.398 188.021 205.398 188.938C205.398 189.604 205.193 190.182 204.781 190.672C204.375 191.156 203.865 191.479 203.25 191.641V191.664C203.969 191.82 204.57 192.146 205.055 192.641C205.544 193.135 205.789 193.768 205.789 194.539C205.789 195.549 205.419 196.333 204.68 196.891C203.94 197.443 203.034 197.719 201.961 197.719C200.898 197.719 199.997 197.443 199.258 196.891C198.523 196.333 198.156 195.549 198.156 194.539ZM198.852 194.5C198.852 195.286 199.138 195.919 199.711 196.398C200.289 196.872 201.039 197.107 201.961 197.102C202.888 197.102 203.641 196.875 204.219 196.422C204.802 195.969 205.094 195.331 205.094 194.508C205.094 193.753 204.802 193.143 204.219 192.68C203.641 192.211 202.888 191.977 201.961 191.977C201.034 191.982 200.284 192.216 199.711 192.68C199.138 193.138 198.852 193.745 198.852 194.5ZM199.227 188.969C199.227 189.656 199.482 190.227 199.992 190.68C200.508 191.133 201.164 191.362 201.961 191.367C202.773 191.367 203.435 191.141 203.945 190.688C204.456 190.229 204.711 189.656 204.711 188.969C204.711 188.24 204.453 187.651 203.938 187.203C203.427 186.75 202.768 186.523 201.961 186.523C201.159 186.518 200.503 186.742 199.992 187.195C199.482 187.643 199.227 188.234 199.227 188.969Z" fill="#272729"/>
<rect width="48" height="48" transform="translate(226 168)" fill="#FBFBFE"/>
<path d="M245.945 189.734C245.945 188.578 246.297 187.651 247 186.953C247.708 186.255 248.625 185.906 249.75 185.906C250.932 185.906 251.901 186.323 252.656 187.156C253.417 187.99 253.797 189.245 253.797 190.922V191.156C253.797 193.078 253.229 194.628 252.094 195.805C250.964 196.982 249.513 197.57 247.742 197.57H247.555V196.945H247.734C249.281 196.945 250.562 196.443 251.578 195.438C252.599 194.432 253.109 193.021 253.109 191.203V190.859C253.109 189.297 252.794 188.185 252.164 187.523C251.534 186.857 250.729 186.523 249.75 186.523C248.771 186.523 248.008 186.805 247.461 187.367C246.914 187.924 246.641 188.714 246.641 189.734C246.641 190.688 246.901 191.422 247.422 191.938C247.948 192.448 248.682 192.703 249.625 192.703C250.568 192.703 251.385 192.419 252.078 191.852C252.771 191.279 253.122 190.568 253.133 189.719H253.445C253.44 190.76 253.06 191.622 252.305 192.305C251.555 192.987 250.617 193.328 249.492 193.328C248.404 193.328 247.539 193.003 246.898 192.352C246.263 191.695 245.945 190.823 245.945 189.734Z" fill="#272729"/>
<rect width="48" height="48" transform="translate(274 168)" fill="#FBFBFE"/>
<path d="M293.594 197.5V186.719L290.273 187.922V187.25L294.008 185.969H294.289V197.5H293.594ZM298.836 193.594V190.031C298.836 188.714 299.151 187.698 299.781 186.984C300.411 186.266 301.292 185.906 302.422 185.906C303.552 185.906 304.432 186.266 305.062 186.984C305.698 187.698 306.016 188.714 306.016 190.031V193.602C306.016 194.924 305.698 195.943 305.062 196.656C304.432 197.365 303.552 197.719 302.422 197.719C301.292 197.719 300.411 197.365 299.781 196.656C299.151 195.943 298.836 194.922 298.836 193.594ZM299.539 193.625C299.539 194.714 299.784 195.565 300.273 196.18C300.768 196.789 301.484 197.094 302.422 197.094C303.359 197.094 304.076 196.789 304.57 196.18C305.07 195.565 305.32 194.714 305.32 193.625V190.016C305.32 188.943 305.07 188.094 304.57 187.469C304.076 186.844 303.359 186.531 302.422 186.531C301.479 186.531 300.763 186.844 300.273 187.469C299.784 188.094 299.539 188.945 299.539 190.023V193.625Z" fill="#272729"/>
<rect width="48" height="48" transform="translate(322 168)" fill="#FBFBFE"/>
<path d="M341.594 197.5V186.719L338.273 187.922V187.25L342.008 185.969H342.289V197.5H341.594ZM350.547 197.5V186.719L347.227 187.922V187.25L350.961 185.969H351.242V197.5H350.547Z" fill="#272729"/>
<rect width="48" height="48" transform="translate(34 216)" fill="#FBFBFE"/>
<path d="M53.5938 245.5V234.719L50.2734 235.922V235.25L54.0078 233.969H54.2891V245.5H53.5938ZM58.7188 245.5V244.93L63.3594 240.32C63.8854 239.789 64.3203 239.247 64.6641 238.695C65.0078 238.143 65.1797 237.542 65.1797 236.891C65.1797 236.271 64.9401 235.721 64.4609 235.242C63.9818 234.763 63.3073 234.526 62.4375 234.531C61.5417 234.536 60.8151 234.781 60.2578 235.266C59.7005 235.745 59.4219 236.422 59.4219 237.297V237.43H58.7344V237.305C58.7344 236.289 59.0729 235.469 59.75 234.844C60.4323 234.219 61.3307 233.906 62.4453 233.906C63.513 233.906 64.349 234.203 64.9531 234.797C65.5625 235.391 65.8672 236.081 65.8672 236.867C65.8672 237.633 65.6875 238.312 65.3281 238.906C64.974 239.5 64.4609 240.128 63.7891 240.789L59.6641 244.914H66.2656V245.5H58.7188Z" fill="#272729"/>
<rect width="48" height="48" transform="translate(82 216)" fill="#FBFBFE"/>
<path d="M101.594 245.5V234.719L98.2734 235.922V235.25L102.008 233.969H102.289V245.5H101.594ZM106.57 242.539V242.438H107.25V242.531C107.25 243.339 107.539 243.969 108.117 244.422C108.695 244.875 109.435 245.102 110.336 245.102C111.206 245.102 111.935 244.872 112.523 244.414C113.117 243.956 113.414 243.312 113.414 242.484C113.414 241.599 113.081 240.945 112.414 240.523C111.753 240.096 110.961 239.883 110.039 239.883H108.906V239.266H109.961C110.836 239.266 111.557 239.055 112.125 238.633C112.693 238.206 112.977 237.63 112.977 236.906C112.977 236.135 112.729 235.544 112.234 235.133C111.74 234.721 111.109 234.518 110.344 234.523C109.578 234.523 108.924 234.742 108.383 235.18C107.846 235.612 107.578 236.188 107.578 236.906V237.055H106.906V236.906C106.906 236.026 107.237 235.307 107.898 234.75C108.565 234.188 109.38 233.906 110.344 233.906C111.312 233.906 112.109 234.18 112.734 234.727C113.359 235.268 113.672 235.987 113.672 236.883C113.672 237.497 113.482 238.039 113.102 238.508C112.727 238.971 112.188 239.315 111.484 239.539V239.57C112.214 239.69 112.836 239.992 113.352 240.477C113.867 240.961 114.125 241.641 114.125 242.516C114.125 243.453 113.766 244.221 113.047 244.82C112.328 245.419 111.424 245.721 110.336 245.727C109.273 245.732 108.38 245.448 107.656 244.875C106.932 244.302 106.57 243.523 106.57 242.539Z" fill="#272729"/>
<rect width="48" height="48" transform="translate(130 216)" fill="#FBFBFE"/>
<path d="M149.594 245.5V234.719L146.273 235.922V235.25L150.008 233.969H150.289V245.5H149.594ZM160.109 245.5V242.445V242.273V235.156H160.047L155.258 242.047H160.227H160.523H162.523V242.672H154.438V242.055L160.102 234.125H160.789V245.5H160.109Z" fill="#272729"/>
<rect x="200" y="216" width="26" height="48" fill="#D5C2FF" fill-opacity="0.5"/>
<circle cx="202" cy="240" r="24" fill="#8C57FF"/>
<path d="M197.641 245.5V234.719L194.32 235.922V235.25L198.055 233.969H198.336V245.5H197.641ZM202.688 242.648V242.539H203.359V242.633C203.359 243.388 203.648 243.99 204.227 244.438C204.805 244.88 205.555 245.102 206.477 245.102C207.398 245.102 208.141 244.823 208.703 244.266C209.271 243.703 209.555 242.904 209.555 241.867C209.555 240.893 209.273 240.159 208.711 239.664C208.154 239.169 207.419 238.922 206.508 238.922C205.997 238.917 205.484 239.044 204.969 239.305C204.458 239.56 204.049 239.865 203.742 240.219L203.109 239.922L203.703 234.125H209.656V234.773H204.281L203.766 239.586C204.021 239.268 204.419 238.977 204.961 238.711C205.508 238.44 206.076 238.305 206.664 238.305C207.69 238.305 208.544 238.612 209.227 239.227C209.909 239.841 210.25 240.721 210.25 241.867C210.25 243.081 209.898 244.026 209.195 244.703C208.497 245.38 207.591 245.719 206.477 245.719C205.388 245.719 204.484 245.443 203.766 244.891C203.047 244.339 202.688 243.591 202.688 242.648Z" fill="white"/>
<rect width="48" height="48" transform="translate(226 216)" fill="#D5C2FF" fill-opacity="0.5"/>
<path d="M245.594 245.5V234.719L242.273 235.922V235.25L246.008 233.969H246.289V245.5H245.594ZM250.562 240.703V240.469C250.562 238.448 251.122 236.849 252.242 235.672C253.362 234.495 254.823 233.906 256.625 233.906H256.797V234.531H256.625C255.073 234.531 253.789 235.036 252.773 236.047C251.758 237.052 251.25 238.51 251.25 240.422V240.766C251.25 242.328 251.573 243.443 252.219 244.109C252.865 244.771 253.674 245.102 254.648 245.102C255.628 245.102 256.383 244.823 256.914 244.266C257.445 243.703 257.711 242.911 257.711 241.891C257.711 240.932 257.448 240.198 256.922 239.688C256.396 239.172 255.661 238.914 254.719 238.914C253.786 238.914 252.971 239.201 252.273 239.773C251.581 240.341 251.229 241.049 251.219 241.898H250.914C250.919 240.857 251.297 239.995 252.047 239.312C252.797 238.63 253.734 238.289 254.859 238.289C255.953 238.289 256.818 238.615 257.453 239.266C258.089 239.917 258.406 240.792 258.406 241.891C258.406 243.047 258.062 243.974 257.375 244.672C256.693 245.37 255.786 245.719 254.656 245.719C253.469 245.719 252.49 245.302 251.719 244.469C250.948 243.635 250.562 242.38 250.562 240.703Z" fill="#272729"/>
<rect width="48" height="48" transform="translate(274 216)" fill="#D5C2FF" fill-opacity="0.5"/>
<path d="M293.594 245.5V234.719L290.273 235.922V235.25L294.008 233.969H294.289V245.5H293.594ZM300.633 245.5L305.328 234.75H298.32V234.125H306.078V234.641L301.383 245.5H300.633Z" fill="#272729"/>
<rect width="48" height="48" transform="translate(322 216)" fill="#D5C2FF" fill-opacity="0.5"/>
<path d="M341.594 245.5V234.719L338.273 235.922V235.25L342.008 233.969H342.289V245.5H341.594ZM346.609 242.539C346.609 241.773 346.852 241.148 347.336 240.664C347.826 240.18 348.424 239.849 349.133 239.672V239.641C348.534 239.484 348.029 239.161 347.617 238.672C347.206 238.182 347 237.604 347 236.938C347 236.005 347.328 235.268 347.984 234.727C348.646 234.18 349.456 233.906 350.414 233.906C351.378 233.906 352.19 234.182 352.852 234.734C353.518 235.286 353.852 236.021 353.852 236.938C353.852 237.604 353.646 238.182 353.234 238.672C352.828 239.156 352.318 239.479 351.703 239.641V239.664C352.422 239.82 353.023 240.146 353.508 240.641C353.997 241.135 354.242 241.768 354.242 242.539C354.242 243.549 353.872 244.333 353.133 244.891C352.393 245.443 351.487 245.719 350.414 245.719C349.352 245.719 348.451 245.443 347.711 244.891C346.977 244.333 346.609 243.549 346.609 242.539ZM347.305 242.5C347.305 243.286 347.591 243.919 348.164 244.398C348.742 244.872 349.492 245.107 350.414 245.102C351.341 245.102 352.094 244.875 352.672 244.422C353.255 243.969 353.547 243.331 353.547 242.508C353.547 241.753 353.255 241.143 352.672 240.68C352.094 240.211 351.341 239.977 350.414 239.977C349.487 239.982 348.737 240.216 348.164 240.68C347.591 241.138 347.305 241.745 347.305 242.5ZM347.68 236.969C347.68 237.656 347.935 238.227 348.445 238.68C348.961 239.133 349.617 239.362 350.414 239.367C351.227 239.367 351.888 239.141 352.398 238.688C352.909 238.229 353.164 237.656 353.164 236.969C353.164 236.24 352.906 235.651 352.391 235.203C351.88 234.75 351.221 234.523 350.414 234.523C349.612 234.518 348.956 234.742 348.445 235.195C347.935 235.643 347.68 236.234 347.68 236.969Z" fill="#272729"/>
<rect width="48" height="48" transform="translate(34 264)" fill="#D5C2FF" fill-opacity="0.5"/>
<path d="M53.5938 293.5V282.719L50.2734 283.922V283.25L54.0078 281.969H54.2891V293.5H53.5938ZM58.3984 285.734C58.3984 284.578 58.75 283.651 59.4531 282.953C60.1615 282.255 61.0781 281.906 62.2031 281.906C63.3854 281.906 64.3542 282.323 65.1094 283.156C65.8698 283.99 66.25 285.245 66.25 286.922V287.156C66.25 289.078 65.6823 290.628 64.5469 291.805C63.4167 292.982 61.9661 293.57 60.1953 293.57H60.0078V292.945H60.1875C61.7344 292.945 63.0156 292.443 64.0312 291.438C65.0521 290.432 65.5625 289.021 65.5625 287.203V286.859C65.5625 285.297 65.2474 284.185 64.6172 283.523C63.987 282.857 63.1823 282.523 62.2031 282.523C61.224 282.523 60.4609 282.805 59.9141 283.367C59.3672 283.924 59.0938 284.714 59.0938 285.734C59.0938 286.688 59.3542 287.422 59.875 287.938C60.401 288.448 61.1354 288.703 62.0781 288.703C63.0208 288.703 63.8385 288.419 64.5312 287.852C65.224 287.279 65.5755 286.568 65.5859 285.719H65.8984C65.8932 286.76 65.513 287.622 64.7578 288.305C64.0078 288.987 63.0703 289.328 61.9453 289.328C60.8568 289.328 59.9922 289.003 59.3516 288.352C58.7161 287.695 58.3984 286.823 58.3984 285.734Z" fill="#272729"/>
<rect width="48" height="48" transform="translate(82 264)" fill="#D5C2FF" fill-opacity="0.5"/>
<path d="M97.7656 293.5V292.93L102.406 288.32C102.932 287.789 103.367 287.247 103.711 286.695C104.055 286.143 104.227 285.542 104.227 284.891C104.227 284.271 103.987 283.721 103.508 283.242C103.029 282.763 102.354 282.526 101.484 282.531C100.589 282.536 99.862 282.781 99.3047 283.266C98.7474 283.745 98.4688 284.422 98.4688 285.297V285.43H97.7812V285.305C97.7812 284.289 98.1198 283.469 98.7969 282.844C99.4792 282.219 100.378 281.906 101.492 281.906C102.56 281.906 103.396 282.203 104 282.797C104.609 283.391 104.914 284.081 104.914 284.867C104.914 285.633 104.734 286.312 104.375 286.906C104.021 287.5 103.508 288.128 102.836 288.789L98.7109 292.914H105.312V293.5H97.7656ZM106.836 289.594V286.031C106.836 284.714 107.151 283.698 107.781 282.984C108.411 282.266 109.292 281.906 110.422 281.906C111.552 281.906 112.432 282.266 113.062 282.984C113.698 283.698 114.016 284.714 114.016 286.031V289.602C114.016 290.924 113.698 291.943 113.062 292.656C112.432 293.365 111.552 293.719 110.422 293.719C109.292 293.719 108.411 293.365 107.781 292.656C107.151 291.943 106.836 290.922 106.836 289.594ZM107.539 289.625C107.539 290.714 107.784 291.565 108.273 292.18C108.768 292.789 109.484 293.094 110.422 293.094C111.359 293.094 112.076 292.789 112.57 292.18C113.07 291.565 113.32 290.714 113.32 289.625V286.016C113.32 284.943 113.07 284.094 112.57 283.469C112.076 282.844 111.359 282.531 110.422 282.531C109.479 282.531 108.763 282.844 108.273 283.469C107.784 284.094 107.539 284.945 107.539 286.023V289.625Z" fill="#272729"/>
<rect width="48" height="48" transform="translate(130 264)" fill="#D5C2FF" fill-opacity="0.5"/>
<path d="M145.766 293.5V292.93L150.406 288.32C150.932 287.789 151.367 287.247 151.711 286.695C152.055 286.143 152.227 285.542 152.227 284.891C152.227 284.271 151.987 283.721 151.508 283.242C151.029 282.763 150.354 282.526 149.484 282.531C148.589 282.536 147.862 282.781 147.305 283.266C146.747 283.745 146.469 284.422 146.469 285.297V285.43H145.781V285.305C145.781 284.289 146.12 283.469 146.797 282.844C147.479 282.219 148.378 281.906 149.492 281.906C150.56 281.906 151.396 282.203 152 282.797C152.609 283.391 152.914 284.081 152.914 284.867C152.914 285.633 152.734 286.312 152.375 286.906C152.021 287.5 151.508 288.128 150.836 288.789L146.711 292.914H153.312V293.5H145.766ZM158.547 293.5V282.719L155.227 283.922V283.25L158.961 281.969H159.242V293.5H158.547Z" fill="#272729"/>
<rect x="178" y="264" width="25" height="48" fill="#D5C2FF" fill-opacity="0.5"/>
<circle cx="202" cy="288" r="24" fill="#8C57FF"/>
<path d="M193.812 293.5V292.93L198.453 288.32C198.979 287.789 199.414 287.247 199.758 286.695C200.102 286.143 200.273 285.542 200.273 284.891C200.273 284.271 200.034 283.721 199.555 283.242C199.076 282.763 198.401 282.526 197.531 282.531C196.635 282.536 195.909 282.781 195.352 283.266C194.794 283.745 194.516 284.422 194.516 285.297V285.43H193.828V285.305C193.828 284.289 194.167 283.469 194.844 282.844C195.526 282.219 196.424 281.906 197.539 281.906C198.607 281.906 199.443 282.203 200.047 282.797C200.656 283.391 200.961 284.081 200.961 284.867C200.961 285.633 200.781 286.312 200.422 286.906C200.068 287.5 199.555 288.128 198.883 288.789L194.758 292.914H201.359V293.5H193.812ZM202.766 293.5V292.93L207.406 288.32C207.932 287.789 208.367 287.247 208.711 286.695C209.055 286.143 209.227 285.542 209.227 284.891C209.227 284.271 208.987 283.721 208.508 283.242C208.029 282.763 207.354 282.526 206.484 282.531C205.589 282.536 204.862 282.781 204.305 283.266C203.747 283.745 203.469 284.422 203.469 285.297V285.43H202.781V285.305C202.781 284.289 203.12 283.469 203.797 282.844C204.479 282.219 205.378 281.906 206.492 281.906C207.56 281.906 208.396 282.203 209 282.797C209.609 283.391 209.914 284.081 209.914 284.867C209.914 285.633 209.734 286.312 209.375 286.906C209.021 287.5 208.508 288.128 207.836 288.789L203.711 292.914H210.312V293.5H202.766Z" fill="white"/>
<rect width="48" height="48" transform="translate(226 264)" fill="#FBFBFE"/>
<path d="M241.766 293.5V292.93L246.406 288.32C246.932 287.789 247.367 287.247 247.711 286.695C248.055 286.143 248.227 285.542 248.227 284.891C248.227 284.271 247.987 283.721 247.508 283.242C247.029 282.763 246.354 282.526 245.484 282.531C244.589 282.536 243.862 282.781 243.305 283.266C242.747 283.745 242.469 284.422 242.469 285.297V285.43H241.781V285.305C241.781 284.289 242.12 283.469 242.797 282.844C243.479 282.219 244.378 281.906 245.492 281.906C246.56 281.906 247.396 282.203 248 282.797C248.609 283.391 248.914 284.081 248.914 284.867C248.914 285.633 248.734 286.312 248.375 286.906C248.021 287.5 247.508 288.128 246.836 288.789L242.711 292.914H249.312V293.5H241.766ZM250.57 290.539V290.438H251.25V290.531C251.25 291.339 251.539 291.969 252.117 292.422C252.695 292.875 253.435 293.102 254.336 293.102C255.206 293.102 255.935 292.872 256.523 292.414C257.117 291.956 257.414 291.312 257.414 290.484C257.414 289.599 257.081 288.945 256.414 288.523C255.753 288.096 254.961 287.883 254.039 287.883H252.906V287.266H253.961C254.836 287.266 255.557 287.055 256.125 286.633C256.693 286.206 256.977 285.63 256.977 284.906C256.977 284.135 256.729 283.544 256.234 283.133C255.74 282.721 255.109 282.518 254.344 282.523C253.578 282.523 252.924 282.742 252.383 283.18C251.846 283.612 251.578 284.188 251.578 284.906V285.055H250.906V284.906C250.906 284.026 251.237 283.307 251.898 282.75C252.565 282.188 253.38 281.906 254.344 281.906C255.312 281.906 256.109 282.18 256.734 282.727C257.359 283.268 257.672 283.987 257.672 284.883C257.672 285.497 257.482 286.039 257.102 286.508C256.727 286.971 256.188 287.315 255.484 287.539V287.57C256.214 287.69 256.836 287.992 257.352 288.477C257.867 288.961 258.125 289.641 258.125 290.516C258.125 291.453 257.766 292.221 257.047 292.82C256.328 293.419 255.424 293.721 254.336 293.727C253.273 293.732 252.38 293.448 251.656 292.875C250.932 292.302 250.57 291.523 250.57 290.539Z" fill="#272729"/>
<rect width="48" height="48" transform="translate(274 264)" fill="#FBFBFE"/>
<path d="M289.766 293.5V292.93L294.406 288.32C294.932 287.789 295.367 287.247 295.711 286.695C296.055 286.143 296.227 285.542 296.227 284.891C296.227 284.271 295.987 283.721 295.508 283.242C295.029 282.763 294.354 282.526 293.484 282.531C292.589 282.536 291.862 282.781 291.305 283.266C290.747 283.745 290.469 284.422 290.469 285.297V285.43H289.781V285.305C289.781 284.289 290.12 283.469 290.797 282.844C291.479 282.219 292.378 281.906 293.492 281.906C294.56 281.906 295.396 282.203 296 282.797C296.609 283.391 296.914 284.081 296.914 284.867C296.914 285.633 296.734 286.312 296.375 286.906C296.021 287.5 295.508 288.128 294.836 288.789L290.711 292.914H297.312V293.5H289.766ZM304.109 293.5V290.445V290.273V283.156H304.047L299.258 290.047H304.227H304.523H306.523V290.672H298.438V290.055L304.102 282.125H304.789V293.5H304.109Z" fill="#272729"/>
<rect width="48" height="48" transform="translate(322 264)" fill="#FBFBFE"/>
<path d="M337.766 293.5V292.93L342.406 288.32C342.932 287.789 343.367 287.247 343.711 286.695C344.055 286.143 344.227 285.542 344.227 284.891C344.227 284.271 343.987 283.721 343.508 283.242C343.029 282.763 342.354 282.526 341.484 282.531C340.589 282.536 339.862 282.781 339.305 283.266C338.747 283.745 338.469 284.422 338.469 285.297V285.43H337.781V285.305C337.781 284.289 338.12 283.469 338.797 282.844C339.479 282.219 340.378 281.906 341.492 281.906C342.56 281.906 343.396 282.203 344 282.797C344.609 283.391 344.914 284.081 344.914 284.867C344.914 285.633 344.734 286.312 344.375 286.906C344.021 287.5 343.508 288.128 342.836 288.789L338.711 292.914H345.312V293.5H337.766ZM346.641 290.648V290.539H347.312V290.633C347.312 291.388 347.602 291.99 348.18 292.438C348.758 292.88 349.508 293.102 350.43 293.102C351.352 293.102 352.094 292.823 352.656 292.266C353.224 291.703 353.508 290.904 353.508 289.867C353.508 288.893 353.227 288.159 352.664 287.664C352.107 287.169 351.372 286.922 350.461 286.922C349.951 286.917 349.438 287.044 348.922 287.305C348.411 287.56 348.003 287.865 347.695 288.219L347.062 287.922L347.656 282.125H353.609V282.773H348.234L347.719 287.586C347.974 287.268 348.372 286.977 348.914 286.711C349.461 286.44 350.029 286.305 350.617 286.305C351.643 286.305 352.497 286.612 353.18 287.227C353.862 287.841 354.203 288.721 354.203 289.867C354.203 291.081 353.852 292.026 353.148 292.703C352.451 293.38 351.544 293.719 350.43 293.719C349.341 293.719 348.438 293.443 347.719 292.891C347 292.339 346.641 291.591 346.641 290.648Z" fill="#272729"/>
<rect width="48" height="48" transform="translate(34 312)" fill="#FBFBFE"/>
<path d="M49.7656 341.5V340.93L54.4062 336.32C54.9323 335.789 55.3672 335.247 55.7109 334.695C56.0547 334.143 56.2266 333.542 56.2266 332.891C56.2266 332.271 55.987 331.721 55.5078 331.242C55.0286 330.763 54.3542 330.526 53.4844 330.531C52.5885 330.536 51.862 330.781 51.3047 331.266C50.7474 331.745 50.4688 332.422 50.4688 333.297V333.43H49.7812V333.305C49.7812 332.289 50.1198 331.469 50.7969 330.844C51.4792 330.219 52.3776 329.906 53.4922 329.906C54.5599 329.906 55.3958 330.203 56 330.797C56.6094 331.391 56.9141 332.081 56.9141 332.867C56.9141 333.633 56.7344 334.312 56.375 334.906C56.0208 335.5 55.5078 336.128 54.8359 336.789L50.7109 340.914H57.3125V341.5H49.7656ZM58.5625 336.703V336.469C58.5625 334.448 59.1224 332.849 60.2422 331.672C61.362 330.495 62.8229 329.906 64.625 329.906H64.7969V330.531H64.625C63.0729 330.531 61.7891 331.036 60.7734 332.047C59.7578 333.052 59.25 334.51 59.25 336.422V336.766C59.25 338.328 59.5729 339.443 60.2188 340.109C60.8646 340.771 61.6745 341.102 62.6484 341.102C63.6276 341.102 64.3828 340.823 64.9141 340.266C65.4453 339.703 65.7109 338.911 65.7109 337.891C65.7109 336.932 65.4479 336.198 64.9219 335.688C64.3958 335.172 63.6615 334.914 62.7188 334.914C61.7865 334.914 60.9714 335.201 60.2734 335.773C59.5807 336.341 59.2292 337.049 59.2188 337.898H58.9141C58.9193 336.857 59.2969 335.995 60.0469 335.312C60.7969 334.63 61.7344 334.289 62.8594 334.289C63.9531 334.289 64.8177 334.615 65.4531 335.266C66.0885 335.917 66.4062 336.792 66.4062 337.891C66.4062 339.047 66.0625 339.974 65.375 340.672C64.6927 341.37 63.7865 341.719 62.6562 341.719C61.4688 341.719 60.4896 341.302 59.7188 340.469C58.9479 339.635 58.5625 338.38 58.5625 336.703Z" fill="#272729"/>
<rect width="48" height="48" transform="translate(82 312)" fill="#FBFBFE"/>
<path d="M97.7656 341.5V340.93L102.406 336.32C102.932 335.789 103.367 335.247 103.711 334.695C104.055 334.143 104.227 333.542 104.227 332.891C104.227 332.271 103.987 331.721 103.508 331.242C103.029 330.763 102.354 330.526 101.484 330.531C100.589 330.536 99.862 330.781 99.3047 331.266C98.7474 331.745 98.4688 332.422 98.4688 333.297V333.43H97.7812V333.305C97.7812 332.289 98.1198 331.469 98.7969 330.844C99.4792 330.219 100.378 329.906 101.492 329.906C102.56 329.906 103.396 330.203 104 330.797C104.609 331.391 104.914 332.081 104.914 332.867C104.914 333.633 104.734 334.312 104.375 334.906C104.021 335.5 103.508 336.128 102.836 336.789L98.7109 340.914H105.312V341.5H97.7656ZM108.633 341.5L113.328 330.75H106.32V330.125H114.078V330.641L109.383 341.5H108.633Z" fill="#272729"/>
<rect width="48" height="48" transform="translate(130 312)" fill="#FBFBFE"/>
<path d="M145.766 341.5V340.93L150.406 336.32C150.932 335.789 151.367 335.247 151.711 334.695C152.055 334.143 152.227 333.542 152.227 332.891C152.227 332.271 151.987 331.721 151.508 331.242C151.029 330.763 150.354 330.526 149.484 330.531C148.589 330.536 147.862 330.781 147.305 331.266C146.747 331.745 146.469 332.422 146.469 333.297V333.43H145.781V333.305C145.781 332.289 146.12 331.469 146.797 330.844C147.479 330.219 148.378 329.906 149.492 329.906C150.56 329.906 151.396 330.203 152 330.797C152.609 331.391 152.914 332.081 152.914 332.867C152.914 333.633 152.734 334.312 152.375 334.906C152.021 335.5 151.508 336.128 150.836 336.789L146.711 340.914H153.312V341.5H145.766ZM154.609 338.539C154.609 337.773 154.852 337.148 155.336 336.664C155.826 336.18 156.424 335.849 157.133 335.672V335.641C156.534 335.484 156.029 335.161 155.617 334.672C155.206 334.182 155 333.604 155 332.938C155 332.005 155.328 331.268 155.984 330.727C156.646 330.18 157.456 329.906 158.414 329.906C159.378 329.906 160.19 330.182 160.852 330.734C161.518 331.286 161.852 332.021 161.852 332.938C161.852 333.604 161.646 334.182 161.234 334.672C160.828 335.156 160.318 335.479 159.703 335.641V335.664C160.422 335.82 161.023 336.146 161.508 336.641C161.997 337.135 162.242 337.768 162.242 338.539C162.242 339.549 161.872 340.333 161.133 340.891C160.393 341.443 159.487 341.719 158.414 341.719C157.352 341.719 156.451 341.443 155.711 340.891C154.977 340.333 154.609 339.549 154.609 338.539ZM155.305 338.5C155.305 339.286 155.591 339.919 156.164 340.398C156.742 340.872 157.492 341.107 158.414 341.102C159.341 341.102 160.094 340.875 160.672 340.422C161.255 339.969 161.547 339.331 161.547 338.508C161.547 337.753 161.255 337.143 160.672 336.68C160.094 336.211 159.341 335.977 158.414 335.977C157.487 335.982 156.737 336.216 156.164 336.68C155.591 337.138 155.305 337.745 155.305 338.5ZM155.68 332.969C155.68 333.656 155.935 334.227 156.445 334.68C156.961 335.133 157.617 335.362 158.414 335.367C159.227 335.367 159.888 335.141 160.398 334.688C160.909 334.229 161.164 333.656 161.164 332.969C161.164 332.24 160.906 331.651 160.391 331.203C159.88 330.75 159.221 330.523 158.414 330.523C157.612 330.518 156.956 330.742 156.445 331.195C155.935 331.643 155.68 332.234 155.68 332.969Z" fill="#272729"/>
<rect width="48" height="48" transform="translate(178 312)" fill="#FBFBFE"/>
<path d="M193.766 341.5V340.93L198.406 336.32C198.932 335.789 199.367 335.247 199.711 334.695C200.055 334.143 200.227 333.542 200.227 332.891C200.227 332.271 199.987 331.721 199.508 331.242C199.029 330.763 198.354 330.526 197.484 330.531C196.589 330.536 195.862 330.781 195.305 331.266C194.747 331.745 194.469 332.422 194.469 333.297V333.43H193.781V333.305C193.781 332.289 194.12 331.469 194.797 330.844C195.479 330.219 196.378 329.906 197.492 329.906C198.56 329.906 199.396 330.203 200 330.797C200.609 331.391 200.914 332.081 200.914 332.867C200.914 333.633 200.734 334.312 200.375 334.906C200.021 335.5 199.508 336.128 198.836 336.789L194.711 340.914H201.312V341.5H193.766ZM202.398 333.734C202.398 332.578 202.75 331.651 203.453 330.953C204.161 330.255 205.078 329.906 206.203 329.906C207.385 329.906 208.354 330.323 209.109 331.156C209.87 331.99 210.25 333.245 210.25 334.922V335.156C210.25 337.078 209.682 338.628 208.547 339.805C207.417 340.982 205.966 341.57 204.195 341.57H204.008V340.945H204.188C205.734 340.945 207.016 340.443 208.031 339.438C209.052 338.432 209.562 337.021 209.562 335.203V334.859C209.562 333.297 209.247 332.185 208.617 331.523C207.987 330.857 207.182 330.523 206.203 330.523C205.224 330.523 204.461 330.805 203.914 331.367C203.367 331.924 203.094 332.714 203.094 333.734C203.094 334.688 203.354 335.422 203.875 335.938C204.401 336.448 205.135 336.703 206.078 336.703C207.021 336.703 207.839 336.419 208.531 335.852C209.224 335.279 209.576 334.568 209.586 333.719H209.898C209.893 334.76 209.513 335.622 208.758 336.305C208.008 336.987 207.07 337.328 205.945 337.328C204.857 337.328 203.992 337.003 203.352 336.352C202.716 335.695 202.398 334.823 202.398 333.734Z" fill="#272729"/>
<rect width="48" height="48" transform="translate(226 312)" fill="#FBFBFE"/>
<path d="M241.617 338.539V338.438H242.297V338.531C242.297 339.339 242.586 339.969 243.164 340.422C243.742 340.875 244.482 341.102 245.383 341.102C246.253 341.102 246.982 340.872 247.57 340.414C248.164 339.956 248.461 339.312 248.461 338.484C248.461 337.599 248.128 336.945 247.461 336.523C246.799 336.096 246.008 335.883 245.086 335.883H243.953V335.266H245.008C245.883 335.266 246.604 335.055 247.172 334.633C247.74 334.206 248.023 333.63 248.023 332.906C248.023 332.135 247.776 331.544 247.281 331.133C246.786 330.721 246.156 330.518 245.391 330.523C244.625 330.523 243.971 330.742 243.43 331.18C242.893 331.612 242.625 332.188 242.625 332.906V333.055H241.953V332.906C241.953 332.026 242.284 331.307 242.945 330.75C243.612 330.188 244.427 329.906 245.391 329.906C246.359 329.906 247.156 330.18 247.781 330.727C248.406 331.268 248.719 331.987 248.719 332.883C248.719 333.497 248.529 334.039 248.148 334.508C247.773 334.971 247.234 335.315 246.531 335.539V335.57C247.26 335.69 247.883 335.992 248.398 336.477C248.914 336.961 249.172 337.641 249.172 338.516C249.172 339.453 248.812 340.221 248.094 340.82C247.375 341.419 246.471 341.721 245.383 341.727C244.32 341.732 243.427 341.448 242.703 340.875C241.979 340.302 241.617 339.523 241.617 338.539ZM250.836 337.594V334.031C250.836 332.714 251.151 331.698 251.781 330.984C252.411 330.266 253.292 329.906 254.422 329.906C255.552 329.906 256.432 330.266 257.062 330.984C257.698 331.698 258.016 332.714 258.016 334.031V337.602C258.016 338.924 257.698 339.943 257.062 340.656C256.432 341.365 255.552 341.719 254.422 341.719C253.292 341.719 252.411 341.365 251.781 340.656C251.151 339.943 250.836 338.922 250.836 337.594ZM251.539 337.625C251.539 338.714 251.784 339.565 252.273 340.18C252.768 340.789 253.484 341.094 254.422 341.094C255.359 341.094 256.076 340.789 256.57 340.18C257.07 339.565 257.32 338.714 257.32 337.625V334.016C257.32 332.943 257.07 332.094 256.57 331.469C256.076 330.844 255.359 330.531 254.422 330.531C253.479 330.531 252.763 330.844 252.273 331.469C251.784 332.094 251.539 332.945 251.539 334.023V337.625Z" fill="#272729"/>
<rect width="48" height="48" transform="translate(274 312)" fill="#FBFBFE"/>
<path d="M298.094 341.5V330.719L294.773 331.922V331.25L298.508 329.969H298.789V341.5H298.094Z" fill="#A5A5A7"/>
<rect width="48" height="48" transform="translate(322 312)" fill="#FBFBFE"/>
<path d="M342.266 341.5V340.93L346.906 336.32C347.432 335.789 347.867 335.247 348.211 334.695C348.555 334.143 348.727 333.542 348.727 332.891C348.727 332.271 348.487 331.721 348.008 331.242C347.529 330.763 346.854 330.526 345.984 330.531C345.089 330.536 344.362 330.781 343.805 331.266C343.247 331.745 342.969 332.422 342.969 333.297V333.43H342.281V333.305C342.281 332.289 342.62 331.469 343.297 330.844C343.979 330.219 344.878 329.906 345.992 329.906C347.06 329.906 347.896 330.203 348.5 330.797C349.109 331.391 349.414 332.081 349.414 332.867C349.414 333.633 349.234 334.312 348.875 334.906C348.521 335.5 348.008 336.128 347.336 336.789L343.211 340.914H349.812V341.5H342.266Z" fill="#A5A5A7"/>
</g>
<defs>
<filter id="filter0_d_1373_45802" x="0" y="0" width="404" height="396" filterUnits="userSpaceOnUse" color-interpolation-filters="sRGB">
<feFlood flood-opacity="0" result="BackgroundImageFix"/>
<feColorMatrix in="SourceAlpha" type="matrix" values="0 0 0 0 0 0 0 0 0 0 0 0 0 0 0 0 0 0 127 0" result="hardAlpha"/>
<feOffset dy="2"/>
<feGaussianBlur stdDeviation="9"/>
<feComposite in2="hardAlpha" operator="out"/>
<feColorMatrix type="matrix" values="0 0 0 0 0.0755194 0 0 0 0 0.0333681 0 0 0 0 0.129167 0 0 0 0.45 0"/>
<feBlend mode="normal" in2="BackgroundImageFix" result="effect1_dropShadow_1373_45802"/>
<feBlend mode="normal" in="SourceGraphic" in2="effect1_dropShadow_1373_45802" result="shape"/>
</filter>
</defs>
</svg>
