<svg width="394" height="110" viewBox="0 0 394 110" fill="none" xmlns="http://www.w3.org/2000/svg">
<g filter="url(#filter0_d_1373_45808)">
<rect x="18" y="16" width="358" height="74" rx="8" fill="#9CC4F2" shape-rendering="crispEdges"/>
<mask id="mask0_1373_45808" style="mask-type:alpha" maskUnits="userSpaceOnUse" x="34" y="30" width="32" height="32">
<rect x="34" y="30" width="32" height="32" fill="#D9D9D9"/>
</mask>
<g mask="url(#mask0_1373_45808)">
<path d="M50.0013 52.6667C50.3791 52.6667 50.6957 52.539 50.9513 52.2834C51.2069 52.0279 51.3346 51.7112 51.3346 51.3334V46.0001C51.3346 45.6223 51.2069 45.3056 50.9513 45.0501C50.6957 44.7945 50.3791 44.6667 50.0013 44.6667C49.6235 44.6667 49.3069 44.7945 49.0513 45.0501C48.7957 45.3056 48.668 45.6223 48.668 46.0001V51.3334C48.668 51.7112 48.7957 52.0279 49.0513 52.2834C49.3069 52.539 49.6235 52.6667 50.0013 52.6667ZM50.0013 42.0001C50.3791 42.0001 50.6957 41.8723 50.9513 41.6167C51.2069 41.3612 51.3346 41.0445 51.3346 40.6667C51.3346 40.289 51.2069 39.9723 50.9513 39.7167C50.6957 39.4612 50.3791 39.3334 50.0013 39.3334C49.6235 39.3334 49.3069 39.4612 49.0513 39.7167C48.7957 39.9723 48.668 40.289 48.668 40.6667C48.668 41.0445 48.7957 41.3612 49.0513 41.6167C49.3069 41.8723 49.6235 42.0001 50.0013 42.0001ZM50.0013 59.3334C48.1569 59.3334 46.4235 58.9834 44.8013 58.2834C43.1791 57.5834 41.768 56.6334 40.568 55.4334C39.368 54.2334 38.418 52.8223 37.718 51.2001C37.018 49.5779 36.668 47.8445 36.668 46.0001C36.668 44.1556 37.018 42.4223 37.718 40.8001C38.418 39.1779 39.368 37.7667 40.568 36.5667C41.768 35.3667 43.1791 34.4167 44.8013 33.7167C46.4235 33.0167 48.1569 32.6667 50.0013 32.6667C51.8457 32.6667 53.5791 33.0167 55.2013 33.7167C56.8235 34.4167 58.2346 35.3667 59.4346 36.5667C60.6346 37.7667 61.5846 39.1779 62.2846 40.8001C62.9846 42.4223 63.3346 44.1556 63.3346 46.0001C63.3346 47.8445 62.9846 49.5779 62.2846 51.2001C61.5846 52.8223 60.6346 54.2334 59.4346 55.4334C58.2346 56.6334 56.8235 57.5834 55.2013 58.2834C53.5791 58.9834 51.8457 59.3334 50.0013 59.3334ZM50.0013 56.6667C52.9791 56.6667 55.5013 55.6334 57.568 53.5667C59.6346 51.5001 60.668 48.9779 60.668 46.0001C60.668 43.0223 59.6346 40.5001 57.568 38.4334C55.5013 36.3667 52.9791 35.3334 50.0013 35.3334C47.0235 35.3334 44.5013 36.3667 42.4346 38.4334C40.368 40.5001 39.3346 43.0223 39.3346 46.0001C39.3346 48.9779 40.368 51.5001 42.4346 53.5667C44.5013 55.6334 47.0235 56.6667 50.0013 56.6667Z" fill="#272729"/>
</g>
<path d="M75.3594 47V35.625H77.5781V47H75.3594ZM80.0391 47V39.4453H82.1016L82.1172 40.6719H82.1328C82.3984 40.2917 82.8047 39.9531 83.3516 39.6562C83.9036 39.3594 84.5625 39.2109 85.3281 39.2109C86.2969 39.2109 87.0651 39.4766 87.6328 40.0078C88.2005 40.5391 88.4844 41.3542 88.4844 42.4531V47H86.3516V42.6641C86.3516 42.0703 86.2057 41.6276 85.9141 41.3359C85.6276 41.0391 85.1953 40.8906 84.6172 40.8906C84.0651 40.8906 83.5703 41.0234 83.1328 41.2891C82.6953 41.5495 82.3724 41.8698 82.1641 42.25V47H80.0391ZM91.1641 47V38.3672C91.1641 37.3359 91.4714 36.5573 92.0859 36.0312C92.7057 35.5 93.5599 35.2344 94.6484 35.2344C94.8307 35.2344 95.0208 35.2474 95.2188 35.2734C95.4167 35.2943 95.6094 35.3255 95.7969 35.3672L95.7578 36.9609C95.638 36.9401 95.5052 36.9219 95.3594 36.9062C95.2135 36.8854 95.0599 36.875 94.8984 36.875C94.3776 36.875 93.974 37.0078 93.6875 37.2734C93.401 37.5391 93.2552 37.9635 93.25 38.5469V39.9375L93.2734 40.0469V47H91.1641ZM89.5391 41.0469V39.4453H91.7344H91.9688H95.2812V41.0469H89.5391ZM95.6641 43.2812V43.1172C95.6641 41.9401 96.1042 40.9922 96.9844 40.2734C97.8698 39.5495 99.0339 39.1875 100.477 39.1875C101.93 39.1875 103.094 39.5495 103.969 40.2734C104.849 40.9922 105.289 41.9401 105.289 43.1172V43.2812C105.289 44.4844 104.849 45.4427 103.969 46.1562C103.094 46.8698 101.93 47.2266 100.477 47.2266C99.0286 47.2266 97.8646 46.8698 96.9844 46.1562C96.1042 45.4427 95.6641 44.4844 95.6641 43.2812ZM97.8281 43.0859V43.3438C97.8281 44.0469 98.0547 44.6068 98.5078 45.0234C98.9609 45.4401 99.6172 45.6484 100.477 45.6484C101.341 45.6484 101.997 45.4401 102.445 45.0234C102.898 44.6068 103.125 44.0443 103.125 43.3359V43.0859C103.125 42.3828 102.898 41.8255 102.445 41.4141C101.992 41.0026 101.336 40.7969 100.477 40.7969C99.6224 40.7969 98.9661 41.0026 98.5078 41.4141C98.0547 41.8255 97.8281 42.3828 97.8281 43.0859ZM111.383 47V39.4453H113.445L113.461 40.6719H113.477C113.742 40.2917 114.148 39.9531 114.695 39.6562C115.247 39.3594 115.906 39.2109 116.672 39.2109C117.641 39.2109 118.409 39.4766 118.977 40.0078C119.544 40.5391 119.828 41.3542 119.828 42.4531V47H117.695V42.6641C117.695 42.0703 117.549 41.6276 117.258 41.3359C116.971 41.0391 116.539 40.8906 115.961 40.8906C115.409 40.8906 114.914 41.0234 114.477 41.2891C114.039 41.5495 113.716 41.8698 113.508 42.25V47H111.383ZM121.352 43.2812V43.1172C121.352 41.9401 121.792 40.9922 122.672 40.2734C123.557 39.5495 124.721 39.1875 126.164 39.1875C127.617 39.1875 128.781 39.5495 129.656 40.2734C130.536 40.9922 130.977 41.9401 130.977 43.1172V43.2812C130.977 44.4844 130.536 45.4427 129.656 46.1562C128.781 46.8698 127.617 47.2266 126.164 47.2266C124.716 47.2266 123.552 46.8698 122.672 46.1562C121.792 45.4427 121.352 44.4844 121.352 43.2812ZM123.516 43.0859V43.3438C123.516 44.0469 123.742 44.6068 124.195 45.0234C124.648 45.4401 125.305 45.6484 126.164 45.6484C127.029 45.6484 127.685 45.4401 128.133 45.0234C128.586 44.6068 128.812 44.0443 128.812 43.3359V43.0859C128.812 42.3828 128.586 41.8255 128.133 41.4141C127.68 41.0026 127.023 40.7969 126.164 40.7969C125.31 40.7969 124.654 41.0026 124.195 41.4141C123.742 41.8255 123.516 42.3828 123.516 43.0859ZM131.531 41.0469V39.4453H137.812V41.0469H131.531ZM133.273 44.6094V39.9844L133.32 39.8438V37.1094H135.367V44.2266C135.367 44.7161 135.477 45.0677 135.695 45.2812C135.914 45.4896 136.227 45.5938 136.633 45.5938C136.898 45.5938 137.112 45.5755 137.273 45.5391C137.44 45.4974 137.594 45.4557 137.734 45.4141L137.828 46.9141C137.667 46.9766 137.448 47.0365 137.172 47.0938C136.901 47.1562 136.513 47.1875 136.008 47.1875C135.195 47.1875 134.536 46.9766 134.031 46.5547C133.526 46.1276 133.273 45.4792 133.273 44.6094ZM139.297 47V39.4453H141.445V47H139.297ZM139.102 36.9609C139.102 36.6276 139.211 36.349 139.43 36.125C139.648 35.901 139.961 35.7891 140.367 35.7891C140.779 35.7891 141.091 35.901 141.305 36.125C141.523 36.3438 141.633 36.6224 141.633 36.9609C141.633 37.2943 141.523 37.5781 141.305 37.8125C141.086 38.0417 140.773 38.1562 140.367 38.1562C139.961 38.1562 139.648 38.0417 139.43 37.8125C139.211 37.5781 139.102 37.2943 139.102 36.9609ZM144.258 47V38.3672C144.258 37.3359 144.565 36.5573 145.18 36.0312C145.799 35.5 146.654 35.2344 147.742 35.2344C147.924 35.2344 148.115 35.2474 148.312 35.2734C148.51 35.2943 148.703 35.3255 148.891 35.3672L148.852 36.9609C148.732 36.9401 148.599 36.9219 148.453 36.9062C148.307 36.8854 148.154 36.875 147.992 36.875C147.471 36.875 147.068 37.0078 146.781 37.2734C146.495 37.5391 146.349 37.9635 146.344 38.5469V39.9375L146.367 40.0469V47H144.258ZM142.633 41.0469V39.4453H144.828H145.062H148.375V41.0469H142.633ZM149.32 47V39.4453H151.469V47H149.32ZM149.125 36.9609C149.125 36.6276 149.234 36.349 149.453 36.125C149.672 35.901 149.984 35.7891 150.391 35.7891C150.802 35.7891 151.115 35.901 151.328 36.125C151.547 36.3438 151.656 36.6224 151.656 36.9609C151.656 37.2943 151.547 37.5781 151.328 37.8125C151.109 38.0417 150.797 38.1562 150.391 38.1562C149.984 38.1562 149.672 38.0417 149.453 37.8125C149.234 37.5781 149.125 37.2943 149.125 36.9609ZM153.133 43.2734V43.1094C153.133 41.901 153.56 40.9453 154.414 40.2422C155.268 39.5391 156.427 39.1875 157.891 39.1875C159.25 39.1875 160.299 39.4557 161.039 39.9922C161.779 40.5286 162.177 41.2344 162.234 42.1094L162.242 42.2734H160.18L160.172 42.1641C160.135 41.7214 159.93 41.3802 159.555 41.1406C159.185 40.901 158.643 40.7812 157.93 40.7812C157.06 40.7812 156.404 40.9844 155.961 41.3906C155.523 41.7969 155.305 42.362 155.305 43.0859V43.3438C155.305 44.0729 155.518 44.6432 155.945 45.0547C156.372 45.4661 157.029 45.6719 157.914 45.6719C158.664 45.6719 159.227 45.5495 159.602 45.3047C159.982 45.0599 160.182 44.7135 160.203 44.2656V44.1562H162.242L162.234 44.3047C162.203 45.1745 161.812 45.8802 161.062 46.4219C160.318 46.9583 159.263 47.2266 157.898 47.2266C156.424 47.2266 155.26 46.8776 154.406 46.1797C153.557 45.4818 153.133 44.513 153.133 43.2734ZM163.078 44.75C163.078 43.974 163.385 43.3802 164 42.9688C164.62 42.5573 165.529 42.3542 166.727 42.3594L169.539 42.3828V41.7578C169.539 41.3724 169.393 41.0807 169.102 40.8828C168.815 40.6849 168.32 40.5859 167.617 40.5859C166.971 40.5859 166.49 40.6771 166.172 40.8594C165.859 41.0417 165.703 41.2969 165.703 41.625V41.8047L163.703 41.7969V41.5859C163.703 40.8672 164.06 40.2891 164.773 39.8516C165.487 39.4141 166.479 39.1953 167.75 39.1953C169.062 39.1953 170.042 39.4141 170.688 39.8516C171.333 40.2839 171.656 40.9688 171.656 41.9062V45.2266C171.656 45.5495 171.685 45.8568 171.742 46.1484C171.799 46.4349 171.883 46.6797 171.992 46.8828V47H169.891C169.812 46.875 169.747 46.7188 169.695 46.5312C169.643 46.3385 169.607 46.1146 169.586 45.8594C169.367 46.1927 168.971 46.487 168.398 46.7422C167.826 46.9922 167.099 47.1172 166.219 47.1172C165.219 47.1172 164.445 46.9115 163.898 46.5C163.352 46.0833 163.078 45.5 163.078 44.75ZM165.188 44.6172C165.188 44.9974 165.326 45.2891 165.602 45.4922C165.878 45.6953 166.323 45.7969 166.938 45.7969C167.604 45.7969 168.206 45.6432 168.742 45.3359C169.279 45.0234 169.547 44.625 169.547 44.1406V43.5547L167.25 43.5391C166.542 43.5339 166.021 43.6172 165.688 43.7891C165.354 43.9557 165.188 44.2318 165.188 44.6172ZM172.734 41.0469V39.4453H179.016V41.0469H172.734ZM174.477 44.6094V39.9844L174.523 39.8438V37.1094H176.57V44.2266C176.57 44.7161 176.68 45.0677 176.898 45.2812C177.117 45.4896 177.43 45.5938 177.836 45.5938C178.102 45.5938 178.315 45.5755 178.477 45.5391C178.643 45.4974 178.797 45.4557 178.938 45.4141L179.031 46.9141C178.87 46.9766 178.651 47.0365 178.375 47.0938C178.104 47.1562 177.716 47.1875 177.211 47.1875C176.398 47.1875 175.74 46.9766 175.234 46.5547C174.729 46.1276 174.477 45.4792 174.477 44.6094ZM180.5 47V39.4453H182.648V47H180.5ZM180.305 36.9609C180.305 36.6276 180.414 36.349 180.633 36.125C180.852 35.901 181.164 35.7891 181.57 35.7891C181.982 35.7891 182.294 35.901 182.508 36.125C182.727 36.3438 182.836 36.6224 182.836 36.9609C182.836 37.2943 182.727 37.5781 182.508 37.8125C182.289 38.0417 181.977 38.1562 181.57 38.1562C181.164 38.1562 180.852 38.0417 180.633 37.8125C180.414 37.5781 180.305 37.2943 180.305 36.9609ZM184.305 43.2812V43.1172C184.305 41.9401 184.745 40.9922 185.625 40.2734C186.51 39.5495 187.674 39.1875 189.117 39.1875C190.57 39.1875 191.734 39.5495 192.609 40.2734C193.49 40.9922 193.93 41.9401 193.93 43.1172V43.2812C193.93 44.4844 193.49 45.4427 192.609 46.1562C191.734 46.8698 190.57 47.2266 189.117 47.2266C187.669 47.2266 186.505 46.8698 185.625 46.1562C184.745 45.4427 184.305 44.4844 184.305 43.2812ZM186.469 43.0859V43.3438C186.469 44.0469 186.695 44.6068 187.148 45.0234C187.602 45.4401 188.258 45.6484 189.117 45.6484C189.982 45.6484 190.638 45.4401 191.086 45.0234C191.539 44.6068 191.766 44.0443 191.766 43.3359V43.0859C191.766 42.3828 191.539 41.8255 191.086 41.4141C190.633 41.0026 189.977 40.7969 189.117 40.7969C188.263 40.7969 187.607 41.0026 187.148 41.4141C186.695 41.8255 186.469 42.3828 186.469 43.0859ZM195.57 47V39.4453H197.633L197.648 40.6719H197.664C197.93 40.2917 198.336 39.9531 198.883 39.6562C199.435 39.3594 200.094 39.2109 200.859 39.2109C201.828 39.2109 202.596 39.4766 203.164 40.0078C203.732 40.5391 204.016 41.3542 204.016 42.4531V47H201.883V42.6641C201.883 42.0703 201.737 41.6276 201.445 41.3359C201.159 41.0391 200.727 40.8906 200.148 40.8906C199.596 40.8906 199.102 41.0234 198.664 41.2891C198.227 41.5495 197.904 41.8698 197.695 42.25V47H195.57Z" fill="#272729"/>
<path d="M74.1719 59.2422V58.625H82.8438V59.2422H78.8516V70H78.1641V59.2422H74.1719ZM82.9297 66.1094V65.8906C82.9297 64.6667 83.2656 63.6745 83.9375 62.9141C84.6146 62.1536 85.513 61.7734 86.6328 61.7734C87.7422 61.7734 88.5885 62.112 89.1719 62.7891C89.7604 63.4661 90.0547 64.4115 90.0547 65.625V65.9688H83.2891V65.3828H89.375V65.3906C89.375 64.4323 89.151 63.6927 88.7031 63.1719C88.2604 62.651 87.5599 62.3906 86.6016 62.3906C85.638 62.3906 84.8958 62.7135 84.375 63.3594C83.8594 64 83.6016 64.8385 83.6016 65.875V66.1172C83.6016 67.1484 83.8672 67.9896 84.3984 68.6406C84.9297 69.2865 85.7526 69.6094 86.8672 69.6094C87.4818 69.6094 88.0052 69.5052 88.4375 69.2969C88.875 69.0833 89.2344 68.8073 89.5156 68.4688L89.9766 68.8906C89.7109 69.2344 89.3151 69.5417 88.7891 69.8125C88.2682 70.0833 87.625 70.2188 86.8594 70.2188C85.599 70.2188 84.6276 69.8385 83.9453 69.0781C83.2682 68.3177 82.9297 67.3281 82.9297 66.1094ZM90.6875 70L93.9609 65.7188H94.0078L96.7422 62H97.5703L94.4375 66.1406H94.3906L91.5156 70H90.6875ZM90.8516 62H91.6953L94.4062 65.6875H94.4531L97.7109 70H96.8594L94.0078 66.1406H93.9609L90.8516 62ZM97.9141 62.5859V62H102.711V62.5859H97.9141ZM99.6953 67.9531V62.3438V62.2266V59.7969H100.375V67.9766C100.375 68.5651 100.482 68.9844 100.695 69.2344C100.909 69.4792 101.232 69.6016 101.664 69.6016C101.846 69.6016 102.013 69.5859 102.164 69.5547C102.315 69.5234 102.458 69.4844 102.594 69.4375V70.0391C102.484 70.0859 102.333 70.1276 102.141 70.1641C101.948 70.2005 101.729 70.2188 101.484 70.2188C100.938 70.2188 100.503 70.0417 100.18 69.6875C99.8568 69.3281 99.6953 68.75 99.6953 67.9531Z" fill="#272729"/>
<mask id="mask1_1373_45808" style="mask-type:alpha" maskUnits="userSpaceOnUse" x="336" y="29" width="24" height="24">
<rect x="336" y="29" width="24" height="24" fill="#D9D9D9"/>
</mask>
<g mask="url(#mask1_1373_45808)">
<path d="M348 42.4905L342.783 47.7072C342.588 47.9024 342.34 48 342.038 48C341.736 48 341.488 47.9024 341.293 47.7072C341.098 47.512 341 47.2636 341 46.962C341 46.6603 341.098 46.4119 341.293 46.2167L346.51 41L341.293 35.7833C341.098 35.5881 341 35.3397 341 35.038C341 34.7364 341.098 34.488 341.293 34.2928C341.488 34.0976 341.736 34 342.038 34C342.34 34 342.588 34.0976 342.783 34.2928L348 39.5095L353.217 34.2928C353.412 34.0976 353.66 34 353.962 34C354.264 34 354.512 34.0976 354.707 34.2928C354.902 34.488 355 34.7364 355 35.038C355 35.3397 354.902 35.5881 354.707 35.7833L349.49 41L354.707 46.2167C354.902 46.4119 355 46.6603 355 46.962C355 47.2636 354.902 47.512 354.707 47.7072C354.512 47.9024 354.264 48 353.962 48C353.66 48 353.412 47.9024 353.217 47.7072L348 42.4905Z" fill="#272729"/>
</g>
</g>
<defs>
<filter id="filter0_d_1373_45808" x="0" y="0" width="394" height="110" filterUnits="userSpaceOnUse" color-interpolation-filters="sRGB">
<feFlood flood-opacity="0" result="BackgroundImageFix"/>
<feColorMatrix in="SourceAlpha" type="matrix" values="0 0 0 0 0 0 0 0 0 0 0 0 0 0 0 0 0 0 127 0" result="hardAlpha"/>
<feOffset dy="2"/>
<feGaussianBlur stdDeviation="9"/>
<feComposite in2="hardAlpha" operator="out"/>
<feColorMatrix type="matrix" values="0 0 0 0 0.0755194 0 0 0 0 0.0333681 0 0 0 0 0.129167 0 0 0 0.45 0"/>
<feBlend mode="normal" in2="BackgroundImageFix" result="effect1_dropShadow_1373_45808"/>
<feBlend mode="normal" in="SourceGraphic" in2="effect1_dropShadow_1373_45808" result="shape"/>
</filter>
</defs>
</svg>
