<svg width="219" height="84" viewBox="0 0 219 84" fill="none" xmlns="http://www.w3.org/2000/svg">
<g filter="url(#filter0_d_1373_45807)">
<path d="M7 13C7 8.58172 10.5817 5 15 5H204C208.418 5 212 8.58172 212 13V35H7V13Z" fill="#B693FF"/>
<path d="M24.0254 24V15.4688H28.3086C29.3555 15.4688 30.1406 15.7168 30.6641 16.2129C31.1875 16.7051 31.4492 17.4043 31.4492 18.3105C31.4492 19.1816 31.1875 19.875 30.6641 20.3906C30.1445 20.9062 29.3535 21.1621 28.291 21.1582H25.666V24H24.0254ZM25.666 19.9629H28.0273C28.6758 19.9629 29.1328 19.8164 29.3984 19.5234C29.668 19.2305 29.8027 18.832 29.8027 18.3281C29.8027 17.8203 29.668 17.4258 29.3984 17.1445C29.1328 16.8633 28.6758 16.7227 28.0273 16.7227H25.666V19.9629ZM32.1582 21.2109V21.0879C32.1582 20.2051 32.4883 19.4941 33.1484 18.9551C33.8125 18.4121 34.6855 18.1406 35.7676 18.1406C36.8574 18.1406 37.7305 18.4121 38.3867 18.9551C39.0469 19.4941 39.377 20.2051 39.377 21.0879V21.2109C39.377 22.1133 39.0469 22.832 38.3867 23.3672C37.7305 23.9023 36.8574 24.1699 35.7676 24.1699C34.6816 24.1699 33.8086 23.9023 33.1484 23.3672C32.4883 22.832 32.1582 22.1133 32.1582 21.2109ZM33.7812 21.0645V21.2578C33.7812 21.7852 33.9512 22.2051 34.291 22.5176C34.6309 22.8301 35.123 22.9863 35.7676 22.9863C36.416 22.9863 36.9082 22.8301 37.2441 22.5176C37.584 22.2051 37.7539 21.7832 37.7539 21.252V21.0645C37.7539 20.5371 37.584 20.1191 37.2441 19.8105C36.9043 19.502 36.4121 19.3477 35.7676 19.3477C35.127 19.3477 34.6348 19.502 34.291 19.8105C33.9512 20.1191 33.7812 20.5371 33.7812 21.0645ZM40.6074 26.4199V18.334H42.1309L42.1484 19.0723H42.1602C42.332 18.8418 42.6152 18.6367 43.0098 18.457C43.4082 18.2734 43.8926 18.1816 44.4629 18.1816C45.4004 18.1816 46.1445 18.4395 46.6953 18.9551C47.2461 19.4707 47.5215 20.1816 47.5215 21.0879V21.2109C47.5215 22.1211 47.2402 22.8379 46.6777 23.3613C46.1191 23.8848 45.3887 24.1465 44.4863 24.1465C43.9355 24.1465 43.4609 24.0664 43.0625 23.9062C42.6641 23.7422 42.375 23.5625 42.1953 23.3672L42.1895 26.4199H40.6074ZM42.1895 22.1191C42.3027 22.3223 42.5234 22.5176 42.8516 22.7051C43.1836 22.8926 43.5859 22.9863 44.0586 22.9863C44.6914 22.9863 45.1582 22.834 45.459 22.5293C45.7637 22.2207 45.916 21.7871 45.916 21.2285V21.0586C45.916 20.5273 45.7656 20.1133 45.4648 19.8164C45.1641 19.5156 44.6934 19.3652 44.0527 19.3652C43.6035 19.3652 43.2129 19.4512 42.8809 19.623C42.5488 19.7949 42.3184 19.9883 42.1895 20.2031V22.1191ZM48.3301 21.2109V21.0879C48.3301 20.2051 48.6602 19.4941 49.3203 18.9551C49.9844 18.4121 50.8574 18.1406 51.9395 18.1406C53.0293 18.1406 53.9023 18.4121 54.5586 18.9551C55.2188 19.4941 55.5488 20.2051 55.5488 21.0879V21.2109C55.5488 22.1133 55.2188 22.832 54.5586 23.3672C53.9023 23.9023 53.0293 24.1699 51.9395 24.1699C50.8535 24.1699 49.9805 23.9023 49.3203 23.3672C48.6602 22.832 48.3301 22.1133 48.3301 21.2109ZM49.9531 21.0645V21.2578C49.9531 21.7852 50.123 22.2051 50.4629 22.5176C50.8027 22.8301 51.2949 22.9863 51.9395 22.9863C52.5879 22.9863 53.0801 22.8301 53.416 22.5176C53.7559 22.2051 53.9258 21.7832 53.9258 21.252V21.0645C53.9258 20.5371 53.7559 20.1191 53.416 19.8105C53.0762 19.502 52.584 19.3477 51.9395 19.3477C51.2988 19.3477 50.8066 19.502 50.4629 19.8105C50.123 20.1191 49.9531 20.5371 49.9531 21.0645ZM55.7129 18.334H57.2773L59.0527 22.002C59.1074 22.127 59.1484 22.2285 59.1758 22.3066C59.2031 22.3848 59.2363 22.4824 59.2754 22.5996H59.3047C59.3438 22.4863 59.375 22.3906 59.3984 22.3125C59.4219 22.2344 59.4629 22.1309 59.5215 22.002L61.3145 18.334H62.8086L60.0195 24H58.5078L55.7129 18.334ZM63.0078 21.2051V21.0879C63.0078 20.2012 63.334 19.4883 63.9863 18.9492C64.6426 18.4102 65.5059 18.1406 66.5762 18.1406C67.6309 18.1406 68.4512 18.3984 69.0371 18.9141C69.623 19.4258 69.9141 20.1152 69.9102 20.9824V21.4863H63.9277V20.5664H68.3633V20.5312C68.3633 20.1836 68.2246 19.8945 67.9473 19.6641C67.6699 19.4297 67.209 19.3125 66.5645 19.3125C65.9121 19.3125 65.418 19.4668 65.082 19.7754C64.75 20.0801 64.584 20.4805 64.584 20.9766V21.252C64.584 21.7988 64.7578 22.2285 65.1055 22.541C65.4531 22.8496 65.957 23.0039 66.6172 23.0039C67.1562 23.0039 67.5859 22.9297 67.9062 22.7812C68.2305 22.6289 68.4766 22.4531 68.6445 22.2539L69.834 22.8281C69.6113 23.2188 69.2363 23.541 68.709 23.7949C68.1855 24.0488 67.4922 24.1758 66.6289 24.1758C65.5078 24.1758 64.623 23.9082 63.9746 23.373C63.3301 22.8379 63.0078 22.1152 63.0078 21.2051ZM71.0293 24V18.334H72.5996L72.6113 19.418H72.6348C72.8105 19.082 73.0879 18.7871 73.4668 18.5332C73.8457 18.2793 74.2715 18.1523 74.7441 18.1523C74.9551 18.1523 75.1289 18.168 75.2656 18.1992C75.4023 18.2305 75.5117 18.2617 75.5938 18.293V19.6172C75.4844 19.5742 75.3613 19.541 75.2246 19.5176C75.0918 19.4902 74.9199 19.4766 74.709 19.4766C74.2598 19.4766 73.8516 19.5938 73.4844 19.8281C73.1172 20.0586 72.8398 20.3496 72.6523 20.7012V24H71.0293ZM79.3965 21.2109V21.0879C79.3965 20.2051 79.7266 19.4941 80.3867 18.9551C81.0508 18.4121 81.9238 18.1406 83.0059 18.1406C84.0957 18.1406 84.9688 18.4121 85.625 18.9551C86.2852 19.4941 86.6152 20.2051 86.6152 21.0879V21.2109C86.6152 22.1133 86.2852 22.832 85.625 23.3672C84.9688 23.9023 84.0957 24.1699 83.0059 24.1699C81.9199 24.1699 81.0469 23.9023 80.3867 23.3672C79.7266 22.832 79.3965 22.1133 79.3965 21.2109ZM81.0195 21.0645V21.2578C81.0195 21.7852 81.1895 22.2051 81.5293 22.5176C81.8691 22.8301 82.3613 22.9863 83.0059 22.9863C83.6543 22.9863 84.1465 22.8301 84.4824 22.5176C84.8223 22.2051 84.9922 21.7832 84.9922 21.252V21.0645C84.9922 20.5371 84.8223 20.1191 84.4824 19.8105C84.1426 19.502 83.6504 19.3477 83.0059 19.3477C82.3652 19.3477 81.873 19.502 81.5293 19.8105C81.1895 20.1191 81.0195 20.5371 81.0195 21.0645ZM87.8457 24V18.334H89.3926L89.4043 19.2539H89.416C89.6152 18.9688 89.9199 18.7148 90.3301 18.4922C90.7441 18.2695 91.2383 18.1582 91.8125 18.1582C92.5391 18.1582 93.1152 18.3574 93.541 18.7559C93.9668 19.1543 94.1797 19.7656 94.1797 20.5898V24H92.5801V20.748C92.5801 20.3027 92.4707 19.9707 92.252 19.752C92.0371 19.5293 91.7129 19.418 91.2793 19.418C90.8652 19.418 90.4941 19.5176 90.166 19.7168C89.8379 19.9121 89.5957 20.1523 89.4395 20.4375V24H87.8457ZM98.1113 16.7812V15.4688H106.227V16.7812H102.998V24H101.34V16.7812H98.1113ZM106.01 21.2109V21.0879C106.01 20.2051 106.34 19.4941 107 18.9551C107.664 18.4121 108.537 18.1406 109.619 18.1406C110.709 18.1406 111.582 18.4121 112.238 18.9551C112.898 19.4941 113.229 20.2051 113.229 21.0879V21.2109C113.229 22.1133 112.898 22.832 112.238 23.3672C111.582 23.9023 110.709 24.1699 109.619 24.1699C108.533 24.1699 107.66 23.9023 107 23.3672C106.34 22.832 106.01 22.1133 106.01 21.2109ZM107.633 21.0645V21.2578C107.633 21.7852 107.803 22.2051 108.143 22.5176C108.482 22.8301 108.975 22.9863 109.619 22.9863C110.268 22.9863 110.76 22.8301 111.096 22.5176C111.436 22.2051 111.605 21.7832 111.605 21.252V21.0645C111.605 20.5371 111.436 20.1191 111.096 19.8105C110.756 19.502 110.264 19.3477 109.619 19.3477C108.979 19.3477 108.486 19.502 108.143 19.8105C107.803 20.1191 107.633 20.5371 107.633 21.0645ZM114.459 26.4199V18.334H115.982L116 19.0723H116.012C116.184 18.8418 116.467 18.6367 116.861 18.457C117.26 18.2734 117.744 18.1816 118.314 18.1816C119.252 18.1816 119.996 18.4395 120.547 18.9551C121.098 19.4707 121.373 20.1816 121.373 21.0879V21.2109C121.373 22.1211 121.092 22.8379 120.529 23.3613C119.971 23.8848 119.24 24.1465 118.338 24.1465C117.787 24.1465 117.312 24.0664 116.914 23.9062C116.516 23.7422 116.227 23.5625 116.047 23.3672L116.041 26.4199H114.459ZM116.041 22.1191C116.154 22.3223 116.375 22.5176 116.703 22.7051C117.035 22.8926 117.438 22.9863 117.91 22.9863C118.543 22.9863 119.01 22.834 119.311 22.5293C119.615 22.2207 119.768 21.7871 119.768 21.2285V21.0586C119.768 20.5273 119.617 20.1133 119.316 19.8164C119.016 19.5156 118.545 19.3652 117.904 19.3652C117.455 19.3652 117.064 19.4512 116.732 19.623C116.4 19.7949 116.17 19.9883 116.041 20.2031V22.1191Z" fill="white"/>
<path d="M7 35H212V63C212 65.7614 209.761 68 207 68H12C9.23857 68 7 65.7614 7 63V35Z" fill="white"/>
<path d="M23.9727 56V47.4688H26.5098C27.373 47.4688 28.0215 47.6914 28.4551 48.1367C28.8926 48.5781 29.1113 49.2051 29.1113 50.0176C29.1113 50.8301 28.8926 51.4609 28.4551 51.9102C28.0215 52.3594 27.373 52.582 26.5098 52.5781H24.6934V56H23.9727ZM24.6934 51.9043H26.5098C27.1738 51.9043 27.6523 51.7344 27.9453 51.3945C28.2383 51.0508 28.3848 50.5918 28.3848 50.0176C28.3848 49.4434 28.2383 48.9883 27.9453 48.6523C27.6523 48.3125 27.1738 48.1426 26.5098 48.1426H24.6934V51.9043ZM29.9551 52.9766V52.7891C29.9551 51.8281 30.207 51.0547 30.7109 50.4688C31.2148 49.8828 31.8809 49.5898 32.709 49.5898C33.5371 49.5898 34.2031 49.8809 34.707 50.4629C35.2148 51.0449 35.4688 51.8203 35.4688 52.7891V52.9766C35.4688 53.9453 35.2148 54.7207 34.707 55.3027C34.2031 55.8848 33.5371 56.1758 32.709 56.1758C31.8809 56.1758 31.2148 55.8848 30.7109 55.3027C30.207 54.7207 29.9551 53.9453 29.9551 52.9766ZM30.6699 52.7246V53.0352C30.6699 53.7695 30.8457 54.3652 31.1973 54.8223C31.5488 55.2793 32.0527 55.5078 32.709 55.5078C33.3691 55.5078 33.875 55.2793 34.2266 54.8223C34.5781 54.3652 34.7539 53.7695 34.7539 53.0352V52.7246C34.7539 51.9863 34.5781 51.3906 34.2266 50.9375C33.875 50.4805 33.3691 50.252 32.709 50.252C32.0527 50.252 31.5488 50.4824 31.1973 50.9434C30.8457 51.4004 30.6699 51.9941 30.6699 52.7246ZM36.8105 58.4375V49.7656H37.4609L37.4785 50.5801C37.6621 50.3184 37.9336 50.0977 38.293 49.918C38.6562 49.7383 39.0664 49.6484 39.5234 49.6484C40.2891 49.6484 40.8887 49.9453 41.3223 50.5391C41.7559 51.1289 41.9727 51.8789 41.9727 52.7891V52.9766C41.9727 53.9141 41.752 54.6719 41.3105 55.25C40.873 55.8281 40.2891 56.1172 39.5586 56.1172C39.1016 56.1172 38.6992 56.041 38.3516 55.8887C38.0039 55.7363 37.7246 55.5312 37.5137 55.2734V58.4375H36.8105ZM37.5137 54.418C37.6465 54.6758 37.8711 54.9121 38.1875 55.127C38.5039 55.3418 38.8848 55.4492 39.3301 55.4492C39.9746 55.4492 40.4551 55.2266 40.7715 54.7812C41.0879 54.3359 41.2461 53.7539 41.2461 53.0352V52.7246C41.2461 51.9824 41.084 51.3965 40.7598 50.9668C40.4395 50.5332 39.9668 50.3164 39.3418 50.3164C38.9043 50.3164 38.5234 50.4219 38.1992 50.6328C37.8789 50.8438 37.6504 51.082 37.5137 51.3477V54.418ZM42.9395 52.9766V52.7891C42.9395 51.8281 43.1914 51.0547 43.6953 50.4688C44.1992 49.8828 44.8652 49.5898 45.6934 49.5898C46.5215 49.5898 47.1875 49.8809 47.6914 50.4629C48.1992 51.0449 48.4531 51.8203 48.4531 52.7891V52.9766C48.4531 53.9453 48.1992 54.7207 47.6914 55.3027C47.1875 55.8848 46.5215 56.1758 45.6934 56.1758C44.8652 56.1758 44.1992 55.8848 43.6953 55.3027C43.1914 54.7207 42.9395 53.9453 42.9395 52.9766ZM43.6543 52.7246V53.0352C43.6543 53.7695 43.8301 54.3652 44.1816 54.8223C44.5332 55.2793 45.0371 55.5078 45.6934 55.5078C46.3535 55.5078 46.8594 55.2793 47.2109 54.8223C47.5625 54.3652 47.7383 53.7695 47.7383 53.0352V52.7246C47.7383 51.9863 47.5625 51.3906 47.2109 50.9375C46.8594 50.4805 46.3535 50.252 45.6934 50.252C45.0371 50.252 44.5332 50.4824 44.1816 50.9434C43.8301 51.4004 43.6543 51.9941 43.6543 52.7246ZM48.8867 49.7656H49.6602L51.2422 54.3887C51.2969 54.5527 51.3457 54.7051 51.3887 54.8457C51.4355 54.9863 51.4766 55.1426 51.5117 55.3145H51.5703C51.6055 55.1426 51.6426 54.9844 51.6816 54.8398C51.7246 54.6953 51.7754 54.5449 51.834 54.3887L53.4219 49.7656H54.166L51.8984 56H51.1426L48.8867 49.7656ZM54.6172 52.9766V52.7891C54.6172 51.8203 54.8594 51.0449 55.3438 50.4629C55.832 49.8809 56.4648 49.5898 57.2422 49.5898C58.0117 49.5898 58.6094 49.8555 59.0352 50.3867C59.4648 50.9141 59.6816 51.6797 59.6855 52.6836V53.0176H54.9805V52.4199H58.9883V52.3848C58.9883 51.7129 58.8496 51.1855 58.5723 50.8027C58.2949 50.416 57.8281 50.2227 57.1719 50.2227C56.5938 50.2227 56.1367 50.457 55.8008 50.9258C55.4688 51.3945 55.3027 51.9941 55.3027 52.7246V53.0352C55.3027 53.7773 55.4824 54.3789 55.8418 54.8398C56.2051 55.3008 56.7324 55.5312 57.4238 55.5312C57.8145 55.5312 58.1484 55.4551 58.4258 55.3027C58.7031 55.1504 58.9434 54.9473 59.1465 54.6934L59.6387 55.1094C59.4395 55.4219 59.1504 55.6777 58.7715 55.877C58.3926 56.0762 57.9395 56.1758 57.4121 56.1758C56.5293 56.1758 55.8418 55.8848 55.3496 55.3027C54.8613 54.7207 54.6172 53.9453 54.6172 52.9766ZM60.834 56V49.7656H61.4961L61.5137 50.5801C61.6973 50.3145 61.9336 50.084 62.2227 49.8887C62.5156 49.6895 62.8594 49.5898 63.2539 49.5898C63.3594 49.5898 63.4609 49.5977 63.5586 49.6133C63.6602 49.6289 63.7383 49.6465 63.793 49.666V50.4102C63.6875 50.3906 63.5879 50.375 63.4941 50.3633C63.4004 50.3477 63.2988 50.3398 63.1895 50.3398C62.8184 50.3398 62.4883 50.4453 62.1992 50.6562C61.9102 50.8633 61.6895 51.1211 61.5371 51.4297V56H60.834ZM66.8867 50.416V49.7656H70.3613V50.416H66.8867ZM68.1172 54.3477V50.1348V50.0352V48.3125H68.8203V54.3594C68.8203 54.7852 68.8906 55.0859 69.0312 55.2617C69.1719 55.4336 69.3789 55.5195 69.6523 55.5195C69.7539 55.5195 69.8535 55.5098 69.9512 55.4902C70.0488 55.4668 70.1445 55.4395 70.2383 55.4082V56.0352C70.1602 56.0742 70.0527 56.1074 69.916 56.1348C69.7832 56.1621 69.6387 56.1758 69.4824 56.1758C69.0684 56.1758 68.7363 56.0293 68.4863 55.7363C68.2402 55.4434 68.1172 54.9805 68.1172 54.3477ZM71.1289 52.9766V52.7891C71.1289 51.8203 71.3711 51.0449 71.8555 50.4629C72.3438 49.8809 72.9766 49.5898 73.7539 49.5898C74.5234 49.5898 75.1211 49.8555 75.5469 50.3867C75.9766 50.9141 76.1934 51.6797 76.1973 52.6836V53.0176H71.4922V52.4199H75.5V52.3848C75.5 51.7129 75.3613 51.1855 75.084 50.8027C74.8066 50.416 74.3398 50.2227 73.6836 50.2227C73.1055 50.2227 72.6484 50.457 72.3125 50.9258C71.9805 51.3945 71.8145 51.9941 71.8145 52.7246V53.0352C71.8145 53.7773 71.9941 54.3789 72.3535 54.8398C72.7168 55.3008 73.2441 55.5312 73.9355 55.5312C74.3262 55.5312 74.6602 55.4551 74.9375 55.3027C75.2148 55.1504 75.4551 54.9473 75.6582 54.6934L76.1504 55.1094C75.9512 55.4219 75.6621 55.6777 75.2832 55.877C74.9043 56.0762 74.4512 56.1758 73.9238 56.1758C73.041 56.1758 72.3535 55.8848 71.8613 55.3027C71.373 54.7207 71.1289 53.9453 71.1289 52.9766ZM76.6191 56L78.8867 52.5488L78.9922 52.5371L80.7852 49.7656H81.5469L79.3965 53.0645L79.2852 53.0879L77.3809 56H76.6191ZM76.7422 49.7656H77.5859L79.3613 52.5371L79.4199 52.5664L81.6758 56H80.832L78.9453 53.0703L78.8926 53.0469L76.7422 49.7656ZM81.793 50.416V49.7656H85.2676V50.416H81.793ZM83.0234 54.3477V50.1348V50.0352V48.3125H83.7266V54.3594C83.7266 54.7852 83.7969 55.0859 83.9375 55.2617C84.0781 55.4336 84.2852 55.5195 84.5586 55.5195C84.6602 55.5195 84.7598 55.5098 84.8574 55.4902C84.9551 55.4668 85.0508 55.4395 85.1445 55.4082V56.0352C85.0664 56.0742 84.959 56.1074 84.8223 56.1348C84.6895 56.1621 84.5449 56.1758 84.3887 56.1758C83.9746 56.1758 83.6426 56.0293 83.3926 55.7363C83.1465 55.4434 83.0234 54.9805 83.0234 54.3477Z" fill="#676769"/>
<path d="M109.697 75L103 68L116 68L109.697 75Z" fill="white"/>
</g>
<defs>
<filter id="filter0_d_1373_45807" x="0" y="0" width="219" height="84" filterUnits="userSpaceOnUse" color-interpolation-filters="sRGB">
<feFlood flood-opacity="0" result="BackgroundImageFix"/>
<feColorMatrix in="SourceAlpha" type="matrix" values="0 0 0 0 0 0 0 0 0 0 0 0 0 0 0 0 0 0 127 0" result="hardAlpha"/>
<feOffset dy="2"/>
<feGaussianBlur stdDeviation="3.5"/>
<feComposite in2="hardAlpha" operator="out"/>
<feColorMatrix type="matrix" values="0 0 0 0 0 0 0 0 0 0 0 0 0 0 0 0 0 0 0.07 0"/>
<feBlend mode="normal" in2="BackgroundImageFix" result="effect1_dropShadow_1373_45807"/>
<feBlend mode="normal" in="SourceGraphic" in2="effect1_dropShadow_1373_45807" result="shape"/>
</filter>
</defs>
</svg>
