<svg width="24" height="24" viewBox="0 0 24 24" fill="none" xmlns="http://www.w3.org/2000/svg">
<g id="Arrows/ north_east">
<mask id="mask0_1373_44802" style="mask-type:alpha" maskUnits="userSpaceOnUse" x="0" y="0" width="24" height="24">
<rect id="Bounding box" width="24" height="24" fill="#D9D9D9"/>
</mask>
<g mask="url(#mask0_1373_44802)">
<path id="north_east" d="M4.28302 19.717C4.09434 19.5283 4 19.2882 4 18.9966C4 18.705 4.09434 18.4648 4.28302 18.2762L15.5009 7.05832H9.73756C9.44597 7.05832 9.20154 6.95969 9.00429 6.76244C8.80703 6.56518 8.70841 6.32075 8.70841 6.02916C8.70841 5.73756 8.80703 5.49314 9.00429 5.29588C9.20154 5.09863 9.44597 5 9.73756 5H17.9708C18.2624 5 18.5069 5.09863 18.7041 5.29588C18.9014 5.49314 19 5.73756 19 6.02916V14.2624C19 14.554 18.9014 14.7985 18.7041 14.9957C18.5069 15.193 18.2624 15.2916 17.9708 15.2916C17.6792 15.2916 17.4348 15.193 17.2376 14.9957C17.0403 14.7985 16.9417 14.554 16.9417 14.2624V8.49914L5.72384 19.717C5.53516 19.9057 5.29503 20 5.00343 20C4.71184 20 4.4717 19.9057 4.28302 19.717Z" fill="#2A282C"/>
</g>
</g>
</svg>
