<svg width="494" height="390" viewBox="0 0 494 390" fill="none" xmlns="http://www.w3.org/2000/svg">
<path fill-rule="evenodd" clip-rule="evenodd" d="M354 97.4862C354 127.889 329.38 152.5 298.979 152.5C268.629 152.5 244 127.889 244 97.4862C244 67.1436 268.629 42.5 298.979 42.5C329.38 42.5 354 67.1436 354 97.4862Z" fill="#FA4616"/>
<path fill-rule="evenodd" clip-rule="evenodd" d="M124 225H369L246.5 0L124 225Z" fill="#0047BB"/>
<path fill-rule="evenodd" clip-rule="evenodd" d="M273.155 48.9395C255.811 58.1942 244 76.4737 244 97.4863C244 127.889 268.629 152.5 298.979 152.5C308.703 152.5 317.836 149.982 325.76 145.562L273.155 48.9395Z" fill="#001A72"/>
<path d="M117.751 361C108.129 361 100.096 358.793 93.6522 354.38C87.2964 349.966 83.4124 343.832 82 335.976H97.2273C98.3748 340.036 100.582 343.037 103.848 344.979C107.114 346.833 111.837 347.76 118.016 347.76C122.871 347.76 126.667 347.053 129.403 345.641C132.228 344.141 133.64 342.066 133.64 339.418C133.64 337.653 132.934 336.196 131.522 335.049C130.198 333.901 128.609 333.063 126.755 332.533C124.989 332.003 122.076 331.253 118.016 330.282C116.515 329.929 115.368 329.664 114.573 329.488C103.715 326.84 96.168 324.103 91.9308 321.279C87.6937 318.366 85.5751 313.997 85.5751 308.171C85.5751 300.933 88.3557 295.283 93.917 291.223C99.5665 287.074 107.026 285 116.294 285C125.387 285 132.581 286.986 137.877 290.958C143.262 294.842 146.661 300.226 148.073 307.111H132.978C130.86 301.197 125.21 298.24 116.03 298.24C111.263 298.24 107.511 298.991 104.775 300.491C102.038 301.992 100.67 304.022 100.67 306.582C100.67 308.789 101.773 310.422 103.98 311.481C106.187 312.452 110.821 313.776 117.883 315.453C122.474 316.512 126.093 317.439 128.741 318.233C131.478 318.94 134.302 319.911 137.215 321.146C140.128 322.382 142.335 323.706 143.836 325.118C145.337 326.531 146.572 328.296 147.543 330.415C148.515 332.445 149 334.872 149 337.697C149 345.2 146.043 350.981 140.128 355.042C134.302 359.014 126.843 361 117.751 361Z" fill="#101820"/>
<path d="M59.0411 285H74V360H59.0411V347.23C53.2165 356.41 44.7442 361 33.6243 361C23.8283 361 15.7531 357.469 9.39893 350.408C3.13298 343.258 0 334.122 0 323C0 311.966 3.1771 302.875 9.53131 295.725C15.8855 288.575 23.8724 285 33.492 285C44.6118 285 53.1282 289.678 59.0411 299.035V285ZM36.8014 346.7C43.2439 346.7 48.5832 344.494 52.8193 340.08C57.0555 335.667 59.1735 329.973 59.1735 323C59.1735 316.115 57.0555 310.466 52.8193 306.052C48.5832 301.551 43.2439 299.3 36.8014 299.3C30.4472 299.3 25.2403 301.506 21.1807 305.92C17.121 310.333 15.0912 316.027 15.0912 323C15.0912 329.973 17.121 335.667 21.1807 340.08C25.2403 344.494 30.4472 346.7 36.8014 346.7Z" fill="#101820"/>
<path d="M478 285H494L447 390H431L448.219 349.835L419 285H436L457 333L478 285Z" fill="#101820"/>
<path d="M407.348 343.573L410 355.719C404.077 359.24 397.137 361 389.18 361C381.312 361 374.903 358.492 369.952 353.475C365.001 348.458 363 341.355 363 331.761V299H349V285H363V270L378 265V285H410V299H378V330.749C378 341.663 382.285 347.138 391.833 347.138C395.369 347.138 400.541 345.949 407.348 343.573Z" fill="#101820"/>
<path d="M324 360V285H339V360H324Z" fill="#101820"/>
<path d="M309.587 285C311.459 285 312.93 285.133 314 285.4V300.747C312.217 300.569 310.701 300.48 309.453 300.48C302.142 300.48 296.257 302.66 291.799 307.02C287.341 311.29 285.112 317.74 285.112 326.37L285 360H270L270.112 285H285.112L285 301C289.636 290.235 297.907 285 309.587 285Z" fill="#101820"/>
<path d="M245 360V285H260V360H245Z" fill="#101820"/>
<path d="M259.286 257.714C257.476 255.905 255.193 255 252.435 255C249.764 255 247.524 255.905 245.714 257.714C243.905 259.433 243 261.65 243 264.364C243 267.169 243.905 269.476 245.714 271.286C247.524 273.095 249.764 274 252.435 274C255.193 274 257.476 273.095 259.286 271.286C261.095 269.476 262 267.169 262 264.364C262 261.65 261.095 259.433 259.286 257.714Z" fill="#101820"/>
<path d="M338.286 257.714C336.476 255.905 334.193 255 331.435 255C328.764 255 326.524 255.905 324.714 257.714C322.905 259.433 322 261.65 322 264.364C322 267.169 322.905 269.476 324.714 271.286C326.524 273.095 328.764 274 331.435 274C334.193 274 336.476 273.095 338.286 271.286C340.095 269.476 341 267.169 341 264.364C341 261.65 340.095 259.433 338.286 257.714Z" fill="#101820"/>
<path d="M201.682 285C211.302 285 219.288 288.591 225.643 295.773C231.997 302.956 235.174 312.089 235.174 323.172C235.174 334.345 231.997 343.522 225.643 350.704C219.377 357.798 211.346 361.345 201.55 361.345C190.518 361.345 181.955 356.282 176.043 347.06V390H161.043L161 285H176L176.043 299.06C181.955 289.661 190.562 285 201.682 285ZM198.373 346.98C204.727 346.98 209.934 344.764 213.993 340.33C218.053 335.897 220.083 330.177 220.083 323.172C220.083 316.167 218.053 310.448 213.993 306.015C209.934 301.581 204.727 299.365 198.373 299.365C191.93 299.365 186.591 301.626 182.355 306.148C178.119 310.581 176 316.256 176 323.172C176 330.177 178.119 335.897 182.355 340.33C186.591 344.764 191.93 346.98 198.373 346.98Z" fill="#101820"/>
</svg>
