<svg width="495" height="391" viewBox="0 0 495 391" fill="none" xmlns="http://www.w3.org/2000/svg">
<path d="M118.001 361.17C108.379 361.17 100.346 358.963 93.9022 354.55C87.5464 350.136 83.6624 344.002 82.25 336.146H97.4773C98.6248 340.206 100.832 343.207 104.098 345.149C107.364 347.003 112.087 347.93 118.266 347.93C123.121 347.93 126.917 347.224 129.653 345.811C132.478 344.311 133.89 342.236 133.89 339.588C133.89 337.823 133.184 336.366 131.772 335.219C130.448 334.071 128.859 333.233 127.005 332.703C125.239 332.174 122.326 331.423 118.266 330.452C116.765 330.099 115.618 329.835 114.823 329.658C103.965 327.01 96.418 324.274 92.1808 321.449C87.9437 318.536 85.8251 314.167 85.8251 308.341C85.8251 301.103 88.6057 295.454 94.167 291.393C99.8165 287.244 107.276 285.17 116.544 285.17C125.637 285.17 132.831 287.156 138.127 291.128C143.512 295.012 146.911 300.397 148.323 307.282H133.228C131.11 301.368 125.46 298.411 116.28 298.411C111.513 298.411 107.761 299.161 105.025 300.661C102.288 302.162 100.92 304.192 100.92 306.752C100.92 308.959 102.023 310.592 104.23 311.651C106.437 312.622 111.071 313.946 118.133 315.623C122.724 316.682 126.343 317.609 128.991 318.404C131.728 319.11 134.552 320.081 137.465 321.317C140.378 322.552 142.585 323.876 144.086 325.289C145.587 326.701 146.822 328.466 147.793 330.585C148.765 332.615 149.25 335.042 149.25 337.867C149.25 345.37 146.293 351.152 140.378 355.212C134.552 359.184 127.093 361.17 118.001 361.17Z" fill="white"/>
<path d="M59.2911 285.17H74.25V360.17H59.2911V347.4C53.4665 356.58 44.9942 361.17 33.8743 361.17C24.0783 361.17 16.0031 357.639 9.64893 350.578C3.38298 343.428 0.25 334.292 0.25 323.17C0.25 312.136 3.4271 303.045 9.78131 295.895C16.1355 288.745 24.1224 285.17 33.742 285.17C44.8618 285.17 53.3782 289.848 59.2911 299.205V285.17ZM37.0514 346.871C43.4939 346.871 48.8332 344.664 53.0693 340.25C57.3055 335.837 59.4235 330.143 59.4235 323.17C59.4235 316.285 57.3055 310.636 53.0693 306.222C48.8332 301.721 43.4939 299.47 37.0514 299.47C30.6972 299.47 25.4903 301.677 21.4307 306.09C17.371 310.504 15.3412 316.197 15.3412 323.17C15.3412 330.143 17.371 335.837 21.4307 340.25C25.4903 344.664 30.6972 346.871 37.0514 346.871Z" fill="white"/>
<path d="M478.25 285.17H494.25L447.25 390.17H431.25L448.469 350.005L419.25 285.17H436.25L457.25 333.17L478.25 285.17Z" fill="white"/>
<path d="M407.598 343.743L410.25 355.889C404.327 359.41 397.387 361.17 389.43 361.17C381.562 361.17 375.153 358.662 370.202 353.645C365.251 348.628 363.25 341.525 363.25 331.931V299.17H349.25V285.17H363.25V270.17L378.25 265.17V285.17H410.25V299.17H378.25V330.919C378.25 341.833 382.535 347.308 392.083 347.308C395.619 347.308 400.791 346.12 407.598 343.743Z" fill="white"/>
<path d="M324.25 360.17V285.17H339.25V360.17H324.25Z" fill="white"/>
<path d="M309.837 285.17C311.709 285.17 313.18 285.304 314.25 285.571V300.917C312.467 300.74 310.951 300.651 309.703 300.651C302.392 300.651 296.507 302.83 292.049 307.19C287.591 311.46 285.362 317.91 285.362 326.54L285.25 360.17H270.25L270.362 285.17H285.362L285.25 301.17C289.886 290.405 298.157 285.17 309.837 285.17Z" fill="white"/>
<path d="M245.25 360.17V285.17H260.25V360.17H245.25Z" fill="white"/>
<path d="M259.536 257.884C257.726 256.075 255.443 255.17 252.685 255.17C250.014 255.17 247.774 256.075 245.964 257.884C244.155 259.603 243.25 261.82 243.25 264.534C243.25 267.339 244.155 269.646 245.964 271.456C247.774 273.265 250.014 274.17 252.685 274.17C255.443 274.17 257.726 273.265 259.536 271.456C261.345 269.646 262.25 267.339 262.25 264.534C262.25 261.82 261.345 259.603 259.536 257.884Z" fill="white"/>
<path d="M338.536 257.884C336.726 256.075 334.443 255.17 331.685 255.17C329.014 255.17 326.774 256.075 324.964 257.884C323.155 259.603 322.25 261.82 322.25 264.534C322.25 267.339 323.155 269.646 324.964 271.456C326.774 273.265 329.014 274.17 331.685 274.17C334.443 274.17 336.726 273.265 338.536 271.456C340.345 269.646 341.25 267.339 341.25 264.534C341.25 261.82 340.345 259.603 338.536 257.884Z" fill="white"/>
<path d="M201.932 285.17C211.552 285.17 219.538 288.761 225.893 295.944C232.247 303.126 235.424 312.259 235.424 323.343C235.424 334.515 232.247 343.692 225.893 350.875C219.627 357.968 211.596 361.515 201.8 361.515C190.768 361.515 182.205 356.452 176.293 347.23V390.17H161.293L161.25 285.17H176.25L176.293 299.23C182.205 289.831 190.812 285.17 201.932 285.17ZM198.623 347.15C204.977 347.15 210.184 344.934 214.243 340.5C218.303 336.067 220.333 330.348 220.333 323.343C220.333 316.338 218.303 310.618 214.243 306.185C210.184 301.751 204.977 299.535 198.623 299.535C192.18 299.535 186.841 301.796 182.605 306.318C178.369 310.751 176.25 316.426 176.25 323.343C176.25 330.348 178.369 336.067 182.605 340.5C186.841 344.934 192.18 347.15 198.623 347.15Z" fill="white"/>
<path fill-rule="evenodd" clip-rule="evenodd" d="M324.817 143.593L270.849 44.9557C254.432 54.7899 243.443 72.6986 243.443 93.1375C243.443 124.208 268.737 149.36 299.907 149.36C308.759 149.36 317.135 147.338 324.591 143.733L368.964 224.833H122.938L245.951 0L270.555 44.9701C278.634 40.5287 287.921 38 297.798 38C329.021 38 354.305 63.1851 354.305 94.1943C354.305 115.524 342.389 134.064 324.817 143.593Z" fill="white"/>
</svg>
