<svg width="300" height="186" viewBox="0 0 300 186" fill="none" xmlns="http://www.w3.org/2000/svg">
<mask id="path-1-inside-1_9907_29671" fill="white">
<path d="M193.61 61.5719C193.61 82.2273 176.865 98.9719 156.21 98.9719C135.554 98.9719 118.81 82.2273 118.81 61.5719C118.81 40.9164 135.554 24.1719 156.21 24.1719C176.865 24.1719 193.61 40.9164 193.61 61.5719ZM133.209 61.5719C133.209 74.275 143.506 84.5729 156.21 84.5729C168.913 84.5729 179.211 74.275 179.211 61.5719C179.211 48.8688 168.913 38.5709 156.21 38.5709C143.506 38.5709 133.209 48.8688 133.209 61.5719Z"/>
</mask>
<path d="M193.61 61.5719C193.61 82.2273 176.865 98.9719 156.21 98.9719C135.554 98.9719 118.81 82.2273 118.81 61.5719C118.81 40.9164 135.554 24.1719 156.21 24.1719C176.865 24.1719 193.61 40.9164 193.61 61.5719ZM133.209 61.5719C133.209 74.275 143.506 84.5729 156.21 84.5729C168.913 84.5729 179.211 74.275 179.211 61.5719C179.211 48.8688 168.913 38.5709 156.21 38.5709C143.506 38.5709 133.209 48.8688 133.209 61.5719Z" stroke="#244153" stroke-width="15.5655" stroke-linejoin="round" mask="url(#path-1-inside-1_9907_29671)"/>
<rect x="179.343" y="68.1523" width="68.1528" height="13.6306" rx="6.81528" transform="rotate(-90 179.343 68.1523)" fill="#244153"/>
<path fill-rule="evenodd" clip-rule="evenodd" d="M188.637 68.4331C191.319 67.8946 193.485 65.8074 193.587 62.8804C193.811 56.4869 192.392 50.1 189.409 44.3501C185.313 36.4546 178.538 30.2773 170.298 26.9268C162.059 23.5763 152.895 23.272 144.451 26.0685C136.008 28.865 128.837 34.5792 124.227 42.1857C121.937 45.9638 120.353 50.0859 119.513 54.354H111.593C107.606 54.354 104.375 57.5854 104.375 61.5715C104.375 65.5576 107.606 68.789 111.593 68.789H119.513C121.145 77.0876 125.545 84.602 132.013 90.0896C138.795 95.8443 147.406 98.9934 156.301 98.9717C162.778 98.956 169.097 97.2595 174.662 94.1033C178.121 92.1414 178.448 87.5238 175.86 84.5042C173.273 81.4846 168.739 81.2651 165.069 82.7968C162.301 83.9523 159.312 84.5641 156.266 84.5715C150.796 84.5848 145.5 82.6482 141.33 79.1093C138.088 76.3591 135.691 72.7812 134.372 68.789H186.393C187.176 68.789 187.931 68.6641 188.637 68.4331ZM134.372 54.354H178.048C177.666 53.2 177.192 52.0719 176.626 50.9811C174.107 46.1256 169.941 42.3268 164.874 40.2663C159.807 38.2059 154.171 38.0187 148.979 39.7385C143.786 41.4583 139.377 44.9723 136.541 49.65C135.637 51.1416 134.912 52.7203 134.372 54.354Z" fill="#53C8B7"/>
<path d="M20.9149 129.688C29.0118 129.688 35.298 133.53 39.7732 141.213C41.3254 144.24 42.1014 147.512 42.1014 151.03V151.884C41.6358 154.522 40.3294 155.842 38.1823 155.842H9.11874C9.86894 158.403 11.9772 160.615 15.4437 162.477C17.4873 163.253 19.4016 163.641 21.1865 163.641C23.256 163.641 25.7394 162.917 28.6367 161.468H29.8784C32.3101 161.934 33.5259 163.201 33.5259 165.271V165.698C33.5259 168.75 29.6844 170.781 22.0014 171.79H20.9149C13.3612 171.79 7.30793 168.259 2.75503 161.197C0.918342 157.859 0 154.367 0 150.72C0 143.011 3.63456 136.88 10.9037 132.327C14.4477 130.568 17.7848 129.688 20.9149 129.688ZM8.42029 147.848H33.8364C33.8364 146.891 32.7628 144.964 30.6157 142.067C27.7184 139.325 24.8728 137.953 22.079 137.953H20.4881C16.2456 137.953 12.7533 140.049 10.0112 144.24C9.05407 145.895 8.52376 147.098 8.42029 147.848Z" fill="#244153"/>
<path d="M52.8878 150.487V150.914C52.8878 156.217 55.5523 160.201 60.8812 162.865C62.5368 163.486 64.0243 163.796 65.3436 163.796H66.4689C70.8666 163.796 74.5011 161.585 77.3726 157.161C78.4073 155.092 78.9247 153.113 78.9247 151.224V150.642C78.9247 145.546 76.4025 141.64 71.3581 138.924C69.6249 138.147 67.8141 137.759 65.9256 137.759H65.7704C60.4156 137.759 56.3801 140.553 53.6638 146.141C53.1465 147.848 52.8878 149.297 52.8878 150.487ZM78.9635 167.366C75.8075 170.315 71.6426 171.79 66.4689 171.79H65.3436C58.2038 171.79 52.254 168.22 47.4941 161.08C45.7609 157.614 44.8943 154.134 44.8943 150.642C44.8943 142.83 48.7229 136.634 56.3801 132.055C59.6395 130.529 62.8214 129.766 65.9256 129.766C73.8674 129.766 80.1535 133.646 84.784 141.407C86.2068 144.589 86.9182 147.861 86.9182 151.224V168.026C86.9182 170.095 85.6506 171.35 83.1154 171.79H82.8438C81.0847 171.79 79.7784 170.755 78.9247 168.686V168.259L78.9635 167.366Z" fill="#244153"/>
<path d="M119.822 157.937C119.796 157.42 119.266 157.109 118.231 157.006C105.142 154.083 98.1572 152.22 97.2777 151.418C94.6132 149.4 93.2809 146.904 93.2809 143.929C93.2809 139.894 96.1006 136.065 101.74 132.443C104.844 130.814 107.91 129.999 110.936 129.999C118.024 129.999 123.625 133.271 127.738 139.816L127.893 141.252V141.485C127.893 143.683 126.574 144.977 123.935 145.365C122.176 145.365 120.547 144.123 119.046 141.64C116.692 139.337 113.989 138.186 110.936 138.186C106.953 138.186 103.835 140.049 101.585 143.774L101.507 144.162C101.507 144.679 102.62 145.029 104.844 145.21C115.968 147.9 122.112 149.465 123.276 149.905C126.458 152 128.049 154.652 128.049 157.859V157.976C128.049 162.399 124.918 166.396 118.658 169.966C115.942 171.182 113.083 171.79 110.083 171.79C103.874 171.79 98.6358 168.893 94.3674 163.098C93.8242 162.322 93.5526 161.572 93.5526 160.847V159.994C93.5526 157.898 94.9753 156.695 97.8209 156.385C99.1919 156.385 100.809 157.717 102.671 160.382C104.948 162.503 107.612 163.564 110.665 163.564C114.286 163.564 117.287 161.869 119.667 158.48L119.822 157.937Z" fill="#244153"/>
<path d="M148.691 155.764C155.132 140.062 158.612 131.913 159.129 131.318C160.034 130.568 160.979 130.193 161.962 130.193C164.445 130.658 165.687 131.9 165.687 133.918V134.151C165.583 134.953 161.095 145.934 152.222 167.095C148.005 177.571 145.574 183.224 144.927 184.052C144.28 184.543 143.44 184.931 142.405 185.216C139.792 184.647 138.486 183.47 138.486 181.685V181.025C138.486 180.533 140.49 175.45 144.5 165.775L131.695 134.539V134.073C132.187 131.59 133.48 130.348 135.575 130.348C137.671 130.348 139.339 132.392 140.581 136.479C144.772 146.361 147.475 152.789 148.691 155.764Z" fill="#244153"/>
<path d="M205.886 113.896H206.584C209.042 114.413 210.271 115.59 210.271 117.427V146.451L210.426 151.418C210.426 155.505 208.77 159.761 205.459 164.184C200.777 169.255 195.5 171.79 189.627 171.79H188.463C182.72 171.79 177.391 169.112 172.476 163.758C169.45 159.489 167.936 155.079 167.936 150.526C167.936 143.645 170.989 137.863 177.094 133.181C180.974 130.594 185.01 129.3 189.2 129.3C194.581 129.3 198.979 130.827 202.394 133.879V119.949L202.238 117.427C202.989 115.073 204.204 113.896 205.886 113.896ZM175.969 150.099V150.836C175.969 156.32 178.853 160.408 184.622 163.098C186.122 163.538 187.493 163.758 188.735 163.758H189.627C194.956 163.758 198.992 160.886 201.734 155.143C202.174 153.41 202.394 152.078 202.394 151.147V150.254C202.394 144.796 199.47 140.708 193.624 137.992C191.839 137.553 190.455 137.333 189.472 137.333H188.89C183.561 137.333 179.526 140.165 176.783 145.831C176.24 147.409 175.969 148.831 175.969 150.099Z" fill="#244153"/>
<path d="M235.065 129.688C243.162 129.688 249.448 133.53 253.923 141.213C255.475 144.24 256.251 147.512 256.251 151.03V151.884C255.786 154.522 254.479 155.842 252.332 155.842H223.269C224.019 158.403 226.127 160.615 229.594 162.477C231.637 163.253 233.552 163.641 235.336 163.641C237.406 163.641 239.889 162.917 242.787 161.468H244.028C246.46 161.934 247.676 163.201 247.676 165.271V165.698C247.676 168.75 243.834 170.781 236.151 171.79H235.065C227.511 171.79 221.458 168.259 216.905 161.197C215.068 157.859 214.15 154.367 214.15 150.72C214.15 143.011 217.785 136.88 225.054 132.327C228.598 130.568 231.935 129.688 235.065 129.688ZM222.57 147.848H247.986C247.986 146.891 246.913 144.964 244.766 142.067C241.868 139.325 239.023 137.953 236.229 137.953H234.638C230.396 137.953 226.903 140.049 224.161 144.24C223.204 145.895 222.674 147.098 222.57 147.848Z" fill="#244153"/>
<path d="M262.847 129.533H263.119C265.188 129.533 266.87 131.37 268.163 135.043L279.571 158.48C287.979 140.631 292.531 131.331 293.23 130.581C294.161 129.882 295.092 129.533 296.024 129.533C298.662 130.025 299.982 131.331 299.982 133.452V133.608C299.982 134.28 297.809 139.118 293.463 148.12L282.559 170.509C281.421 171.363 280.425 171.79 279.571 171.79H279.455C277.256 171.79 275.432 169.694 273.984 165.504C264.593 146.335 259.613 135.91 259.044 134.228V133.219C259.51 130.762 260.777 129.533 262.847 129.533Z" fill="#244153"/>
</svg>
