<svg width="146" height="75" viewBox="0 0 146 75" fill="none" xmlns="http://www.w3.org/2000/svg">
<g filter="url(#filter0_d_1373_45687)">
<rect x="15" y="11" width="116" height="45" rx="22.5" fill="#AD9AF9" shape-rendering="crispEdges"/>
<mask id="mask0_1373_45687" style="mask-type:alpha" maskUnits="userSpaceOnUse" x="31" y="21" width="24" height="25">
<rect x="31" y="21.5" width="24" height="24" fill="#D9D9D9"/>
</mask>
<g mask="url(#mask0_1373_45687)">
<path d="M43 34.9905L37.7833 40.2072C37.5881 40.4024 37.3397 40.5 37.038 40.5C36.7364 40.5 36.488 40.4024 36.2928 40.2072C36.0976 40.012 36 39.7636 36 39.462C36 39.1603 36.0976 38.9119 36.2928 38.7167L41.5095 33.5L36.2928 28.2833C36.0976 28.0881 36 27.8397 36 27.538C36 27.2364 36.0976 26.988 36.2928 26.7928C36.488 26.5976 36.7364 26.5 37.038 26.5C37.3397 26.5 37.5881 26.5976 37.7833 26.7928L43 32.0095L48.2167 26.7928C48.4119 26.5976 48.6603 26.5 48.962 26.5C49.2636 26.5 49.512 26.5976 49.7072 26.7928C49.9024 26.988 50 27.2364 50 27.538C50 27.8397 49.9024 28.0881 49.7072 28.2833L44.4905 33.5L49.7072 38.7167C49.9024 38.9119 50 39.1603 50 39.462C50 39.7636 49.9024 40.012 49.7072 40.2072C49.512 40.4024 49.2636 40.5 48.962 40.5C48.6603 40.5 48.4119 40.4024 48.2167 40.2072L43 34.9905Z" fill="#3F3A43"/>
</g>
<path d="M63.8594 33.5078V33.0938C63.8594 31.2031 64.2943 29.7839 65.1641 28.8359C66.0391 27.8828 67.1589 27.4062 68.5234 27.4062C69.8359 27.4062 70.8333 27.7474 71.5156 28.4297C72.2031 29.1068 72.6146 30.0182 72.75 31.1641L72.7578 31.2812H72.0625L72.0469 31.1719C71.9479 30.2969 71.6224 29.5573 71.0703 28.9531C70.5182 28.3438 69.6693 28.0391 68.5234 28.0391C67.3203 28.0391 66.3594 28.474 65.6406 29.3438C64.9219 30.2135 64.5625 31.4557 64.5625 33.0703V33.5234C64.5625 35.2422 64.9271 36.5156 65.6562 37.3438C66.3854 38.1719 67.3411 38.5859 68.5234 38.5859C69.7266 38.5859 70.5964 38.2786 71.1328 37.6641C71.6745 37.0443 71.9818 36.3073 72.0547 35.4531L72.0625 35.3438H72.7578L72.75 35.4609C72.651 36.5807 72.2526 37.487 71.5547 38.1797C70.8568 38.8724 69.8464 39.2188 68.5234 39.2188C67.1589 39.2188 66.0391 38.7526 65.1641 37.8203C64.2943 36.888 63.8594 35.4505 63.8594 33.5078ZM74.5469 39V27.125H75.2266V32.3203C75.5703 31.8672 75.9818 31.5078 76.4609 31.2422C76.9453 30.9714 77.5156 30.8359 78.1719 30.8359C79.0521 30.8359 79.7396 31.0599 80.2344 31.5078C80.7344 31.9557 80.9844 32.6979 80.9844 33.7344V39H80.3047V33.7266C80.3047 32.9245 80.1016 32.3464 79.6953 31.9922C79.2891 31.6328 78.7214 31.4531 77.9922 31.4531C77.3568 31.4531 76.8047 31.6094 76.3359 31.9219C75.8724 32.2344 75.5026 32.6224 75.2266 33.0859V39H74.5469ZM83.2891 39V31H83.9609V39H83.2891ZM83.0703 28.3438C83.0703 28.1875 83.1172 28.0573 83.2109 27.9531C83.3099 27.849 83.4479 27.7969 83.625 27.7969C83.8021 27.7969 83.9375 27.849 84.0312 27.9531C84.1302 28.0573 84.1797 28.1875 84.1797 28.3438C84.1797 28.5052 84.1302 28.638 84.0312 28.7422C83.9323 28.8464 83.7969 28.8984 83.625 28.8984C83.4479 28.8984 83.3099 28.8464 83.2109 28.7422C83.1172 28.638 83.0703 28.5052 83.0703 28.3438ZM86.3438 42.2891V31H86.9688L86.9844 32.1953H86.9922C87.263 31.8359 87.6615 31.5208 88.1875 31.25C88.7188 30.9792 89.3333 30.8438 90.0312 30.8438C91.1198 30.8438 91.9766 31.2214 92.6016 31.9766C93.2266 32.7266 93.5391 33.6927 93.5391 34.875V35.1016C93.5391 36.2943 93.2266 37.2682 92.6016 38.0234C91.9766 38.7786 91.1146 39.1562 90.0156 39.1562C89.3229 39.1562 88.724 39.0339 88.2188 38.7891C87.7188 38.5391 87.3203 38.2344 87.0234 37.875V42.2891H86.3438ZM87.0234 37.0234C87.237 37.4193 87.5859 37.7734 88.0703 38.0859C88.5599 38.3932 89.1432 38.5469 89.8203 38.5469C90.8464 38.5521 91.6068 38.237 92.1016 37.6016C92.6016 36.9661 92.8516 36.1354 92.8516 35.1094V34.8672C92.8516 33.8464 92.6042 33.0208 92.1094 32.3906C91.6198 31.7604 90.862 31.4479 89.8359 31.4531C89.1536 31.4531 88.5677 31.6068 88.0781 31.9141C87.5938 32.2214 87.2422 32.5729 87.0234 32.9688V37.0234ZM94.8281 36.6172H95.5V36.6875C95.5 37.349 95.7318 37.8359 96.1953 38.1484C96.6641 38.4557 97.2943 38.612 98.0859 38.6172C98.9089 38.6172 99.5339 38.4609 99.9609 38.1484C100.388 37.8307 100.602 37.4193 100.602 36.9141C100.602 36.3984 100.419 36.026 100.055 35.7969C99.6953 35.5677 99.0104 35.3516 98 35.1484C97 34.9453 96.2682 34.6693 95.8047 34.3203C95.3411 33.9714 95.1094 33.5 95.1094 32.9062C95.1094 32.276 95.375 31.763 95.9062 31.3672C96.4427 30.9714 97.1745 30.7734 98.1016 30.7734C99.0286 30.7734 99.763 30.9922 100.305 31.4297C100.846 31.862 101.117 32.4323 101.117 33.1406V33.2188H100.445V33.1719C100.445 32.6094 100.247 32.1719 99.8516 31.8594C99.4557 31.5417 98.8724 31.3828 98.1016 31.3828C97.3359 31.3828 96.7604 31.513 96.375 31.7734C95.9896 32.0339 95.7969 32.388 95.7969 32.8359C95.7969 33.2682 95.9661 33.6094 96.3047 33.8594C96.6484 34.1042 97.3203 34.3281 98.3203 34.5312C99.3359 34.7396 100.086 35.013 100.57 35.3516C101.055 35.6849 101.297 36.1875 101.297 36.8594C101.297 37.5365 101.034 38.099 100.508 38.5469C99.987 38.9948 99.1797 39.2188 98.0859 39.2188C97.0182 39.2188 96.2083 38.9974 95.6562 38.5547C95.1042 38.1068 94.8281 37.487 94.8281 36.6953V36.6172ZM110.203 39V28.2188L106.883 29.4219V28.75L110.617 27.4688H110.898V39H110.203Z" fill="#2A282C"/>
</g>
<defs>
<filter id="filter0_d_1373_45687" x="0" y="0" width="146" height="75" filterUnits="userSpaceOnUse" color-interpolation-filters="sRGB">
<feFlood flood-opacity="0" result="BackgroundImageFix"/>
<feColorMatrix in="SourceAlpha" type="matrix" values="0 0 0 0 0 0 0 0 0 0 0 0 0 0 0 0 0 0 127 0" result="hardAlpha"/>
<feOffset dy="4"/>
<feGaussianBlur stdDeviation="7.5"/>
<feComposite in2="hardAlpha" operator="out"/>
<feColorMatrix type="matrix" values="0 0 0 0 0 0 0 0 0 0 0 0 0 0 0 0 0 0 0.92 0"/>
<feBlend mode="normal" in2="BackgroundImageFix" result="effect1_dropShadow_1373_45687"/>
<feBlend mode="normal" in="SourceGraphic" in2="effect1_dropShadow_1373_45687" result="shape"/>
</filter>
</defs>
</svg>
