<svg width="217" height="82" viewBox="0 0 217 82" fill="none" xmlns="http://www.w3.org/2000/svg">
<g filter="url(#filter0_d_1373_45700)">
<path d="M6 12C6 7.58172 9.58172 4 14 4H203C207.418 4 211 7.58172 211 12V34H6V12Z" fill="#C1B3FB"/>
<path d="M23.0254 23V14.4688H27.3086C28.3555 14.4688 29.1406 14.7168 29.6641 15.2129C30.1875 15.7051 30.4492 16.4043 30.4492 17.3105C30.4492 18.1816 30.1875 18.875 29.6641 19.3906C29.1445 19.9062 28.3535 20.1621 27.291 20.1582H24.666V23H23.0254ZM24.666 18.9629H27.0273C27.6758 18.9629 28.1328 18.8164 28.3984 18.5234C28.668 18.2305 28.8027 17.832 28.8027 17.3281C28.8027 16.8203 28.668 16.4258 28.3984 16.1445C28.1328 15.8633 27.6758 15.7227 27.0273 15.7227H24.666V18.9629ZM31.1582 20.2109V20.0879C31.1582 19.2051 31.4883 18.4941 32.1484 17.9551C32.8125 17.4121 33.6855 17.1406 34.7676 17.1406C35.8574 17.1406 36.7305 17.4121 37.3867 17.9551C38.0469 18.4941 38.377 19.2051 38.377 20.0879V20.2109C38.377 21.1133 38.0469 21.832 37.3867 22.3672C36.7305 22.9023 35.8574 23.1699 34.7676 23.1699C33.6816 23.1699 32.8086 22.9023 32.1484 22.3672C31.4883 21.832 31.1582 21.1133 31.1582 20.2109ZM32.7812 20.0645V20.2578C32.7812 20.7852 32.9512 21.2051 33.291 21.5176C33.6309 21.8301 34.123 21.9863 34.7676 21.9863C35.416 21.9863 35.9082 21.8301 36.2441 21.5176C36.584 21.2051 36.7539 20.7832 36.7539 20.252V20.0645C36.7539 19.5371 36.584 19.1191 36.2441 18.8105C35.9043 18.502 35.4121 18.3477 34.7676 18.3477C34.127 18.3477 33.6348 18.502 33.291 18.8105C32.9512 19.1191 32.7812 19.5371 32.7812 20.0645ZM39.6074 25.4199V17.334H41.1309L41.1484 18.0723H41.1602C41.332 17.8418 41.6152 17.6367 42.0098 17.457C42.4082 17.2734 42.8926 17.1816 43.4629 17.1816C44.4004 17.1816 45.1445 17.4395 45.6953 17.9551C46.2461 18.4707 46.5215 19.1816 46.5215 20.0879V20.2109C46.5215 21.1211 46.2402 21.8379 45.6777 22.3613C45.1191 22.8848 44.3887 23.1465 43.4863 23.1465C42.9355 23.1465 42.4609 23.0664 42.0625 22.9062C41.6641 22.7422 41.375 22.5625 41.1953 22.3672L41.1895 25.4199H39.6074ZM41.1895 21.1191C41.3027 21.3223 41.5234 21.5176 41.8516 21.7051C42.1836 21.8926 42.5859 21.9863 43.0586 21.9863C43.6914 21.9863 44.1582 21.834 44.459 21.5293C44.7637 21.2207 44.916 20.7871 44.916 20.2285V20.0586C44.916 19.5273 44.7656 19.1133 44.4648 18.8164C44.1641 18.5156 43.6934 18.3652 43.0527 18.3652C42.6035 18.3652 42.2129 18.4512 41.8809 18.623C41.5488 18.7949 41.3184 18.9883 41.1895 19.2031V21.1191ZM47.3301 20.2109V20.0879C47.3301 19.2051 47.6602 18.4941 48.3203 17.9551C48.9844 17.4121 49.8574 17.1406 50.9395 17.1406C52.0293 17.1406 52.9023 17.4121 53.5586 17.9551C54.2188 18.4941 54.5488 19.2051 54.5488 20.0879V20.2109C54.5488 21.1133 54.2188 21.832 53.5586 22.3672C52.9023 22.9023 52.0293 23.1699 50.9395 23.1699C49.8535 23.1699 48.9805 22.9023 48.3203 22.3672C47.6602 21.832 47.3301 21.1133 47.3301 20.2109ZM48.9531 20.0645V20.2578C48.9531 20.7852 49.123 21.2051 49.4629 21.5176C49.8027 21.8301 50.2949 21.9863 50.9395 21.9863C51.5879 21.9863 52.0801 21.8301 52.416 21.5176C52.7559 21.2051 52.9258 20.7832 52.9258 20.252V20.0645C52.9258 19.5371 52.7559 19.1191 52.416 18.8105C52.0762 18.502 51.584 18.3477 50.9395 18.3477C50.2988 18.3477 49.8066 18.502 49.4629 18.8105C49.123 19.1191 48.9531 19.5371 48.9531 20.0645ZM54.7129 17.334H56.2773L58.0527 21.002C58.1074 21.127 58.1484 21.2285 58.1758 21.3066C58.2031 21.3848 58.2363 21.4824 58.2754 21.5996H58.3047C58.3438 21.4863 58.375 21.3906 58.3984 21.3125C58.4219 21.2344 58.4629 21.1309 58.5215 21.002L60.3145 17.334H61.8086L59.0195 23H57.5078L54.7129 17.334ZM62.0078 20.2051V20.0879C62.0078 19.2012 62.334 18.4883 62.9863 17.9492C63.6426 17.4102 64.5059 17.1406 65.5762 17.1406C66.6309 17.1406 67.4512 17.3984 68.0371 17.9141C68.623 18.4258 68.9141 19.1152 68.9102 19.9824V20.4863H62.9277V19.5664H67.3633V19.5312C67.3633 19.1836 67.2246 18.8945 66.9473 18.6641C66.6699 18.4297 66.209 18.3125 65.5645 18.3125C64.9121 18.3125 64.418 18.4668 64.082 18.7754C63.75 19.0801 63.584 19.4805 63.584 19.9766V20.252C63.584 20.7988 63.7578 21.2285 64.1055 21.541C64.4531 21.8496 64.957 22.0039 65.6172 22.0039C66.1562 22.0039 66.5859 21.9297 66.9062 21.7812C67.2305 21.6289 67.4766 21.4531 67.6445 21.2539L68.834 21.8281C68.6113 22.2188 68.2363 22.541 67.709 22.7949C67.1855 23.0488 66.4922 23.1758 65.6289 23.1758C64.5078 23.1758 63.623 22.9082 62.9746 22.373C62.3301 21.8379 62.0078 21.1152 62.0078 20.2051ZM70.0293 23V17.334H71.5996L71.6113 18.418H71.6348C71.8105 18.082 72.0879 17.7871 72.4668 17.5332C72.8457 17.2793 73.2715 17.1523 73.7441 17.1523C73.9551 17.1523 74.1289 17.168 74.2656 17.1992C74.4023 17.2305 74.5117 17.2617 74.5938 17.293V18.6172C74.4844 18.5742 74.3613 18.541 74.2246 18.5176C74.0918 18.4902 73.9199 18.4766 73.709 18.4766C73.2598 18.4766 72.8516 18.5938 72.4844 18.8281C72.1172 19.0586 71.8398 19.3496 71.6523 19.7012V23H70.0293ZM78.3965 20.2109V20.0879C78.3965 19.2051 78.7266 18.4941 79.3867 17.9551C80.0508 17.4121 80.9238 17.1406 82.0059 17.1406C83.0957 17.1406 83.9688 17.4121 84.625 17.9551C85.2852 18.4941 85.6152 19.2051 85.6152 20.0879V20.2109C85.6152 21.1133 85.2852 21.832 84.625 22.3672C83.9688 22.9023 83.0957 23.1699 82.0059 23.1699C80.9199 23.1699 80.0469 22.9023 79.3867 22.3672C78.7266 21.832 78.3965 21.1133 78.3965 20.2109ZM80.0195 20.0645V20.2578C80.0195 20.7852 80.1895 21.2051 80.5293 21.5176C80.8691 21.8301 81.3613 21.9863 82.0059 21.9863C82.6543 21.9863 83.1465 21.8301 83.4824 21.5176C83.8223 21.2051 83.9922 20.7832 83.9922 20.252V20.0645C83.9922 19.5371 83.8223 19.1191 83.4824 18.8105C83.1426 18.502 82.6504 18.3477 82.0059 18.3477C81.3652 18.3477 80.873 18.502 80.5293 18.8105C80.1895 19.1191 80.0195 19.5371 80.0195 20.0645ZM86.8457 23V17.334H88.3926L88.4043 18.2539H88.416C88.6152 17.9688 88.9199 17.7148 89.3301 17.4922C89.7441 17.2695 90.2383 17.1582 90.8125 17.1582C91.5391 17.1582 92.1152 17.3574 92.541 17.7559C92.9668 18.1543 93.1797 18.7656 93.1797 19.5898V23H91.5801V19.748C91.5801 19.3027 91.4707 18.9707 91.252 18.752C91.0371 18.5293 90.7129 18.418 90.2793 18.418C89.8652 18.418 89.4941 18.5176 89.166 18.7168C88.8379 18.9121 88.5957 19.1523 88.4395 19.4375V23H86.8457ZM97.1113 15.7812V14.4688H105.227V15.7812H101.998V23H100.34V15.7812H97.1113ZM105.01 20.2109V20.0879C105.01 19.2051 105.34 18.4941 106 17.9551C106.664 17.4121 107.537 17.1406 108.619 17.1406C109.709 17.1406 110.582 17.4121 111.238 17.9551C111.898 18.4941 112.229 19.2051 112.229 20.0879V20.2109C112.229 21.1133 111.898 21.832 111.238 22.3672C110.582 22.9023 109.709 23.1699 108.619 23.1699C107.533 23.1699 106.66 22.9023 106 22.3672C105.34 21.832 105.01 21.1133 105.01 20.2109ZM106.633 20.0645V20.2578C106.633 20.7852 106.803 21.2051 107.143 21.5176C107.482 21.8301 107.975 21.9863 108.619 21.9863C109.268 21.9863 109.76 21.8301 110.096 21.5176C110.436 21.2051 110.605 20.7832 110.605 20.252V20.0645C110.605 19.5371 110.436 19.1191 110.096 18.8105C109.756 18.502 109.264 18.3477 108.619 18.3477C107.979 18.3477 107.486 18.502 107.143 18.8105C106.803 19.1191 106.633 19.5371 106.633 20.0645ZM113.459 25.4199V17.334H114.982L115 18.0723H115.012C115.184 17.8418 115.467 17.6367 115.861 17.457C116.26 17.2734 116.744 17.1816 117.314 17.1816C118.252 17.1816 118.996 17.4395 119.547 17.9551C120.098 18.4707 120.373 19.1816 120.373 20.0879V20.2109C120.373 21.1211 120.092 21.8379 119.529 22.3613C118.971 22.8848 118.24 23.1465 117.338 23.1465C116.787 23.1465 116.312 23.0664 115.914 22.9062C115.516 22.7422 115.227 22.5625 115.047 22.3672L115.041 25.4199H113.459ZM115.041 21.1191C115.154 21.3223 115.375 21.5176 115.703 21.7051C116.035 21.8926 116.438 21.9863 116.91 21.9863C117.543 21.9863 118.01 21.834 118.311 21.5293C118.615 21.2207 118.768 20.7871 118.768 20.2285V20.0586C118.768 19.5273 118.617 19.1133 118.316 18.8164C118.016 18.5156 117.545 18.3652 116.904 18.3652C116.455 18.3652 116.064 18.4512 115.732 18.623C115.4 18.7949 115.17 18.9883 115.041 19.2031V21.1191Z" fill="#2A282C"/>
<path d="M6 34H211V62C211 64.7614 208.761 67 206 67H11C8.23857 67 6 64.7614 6 62V34Z" fill="#3F3A43"/>
<path d="M22.9727 55V46.4688H25.5098C26.373 46.4688 27.0215 46.6914 27.4551 47.1367C27.8926 47.5781 28.1113 48.2051 28.1113 49.0176C28.1113 49.8301 27.8926 50.4609 27.4551 50.9102C27.0215 51.3594 26.373 51.582 25.5098 51.5781H23.6934V55H22.9727ZM23.6934 50.9043H25.5098C26.1738 50.9043 26.6523 50.7344 26.9453 50.3945C27.2383 50.0508 27.3848 49.5918 27.3848 49.0176C27.3848 48.4434 27.2383 47.9883 26.9453 47.6523C26.6523 47.3125 26.1738 47.1426 25.5098 47.1426H23.6934V50.9043ZM28.9551 51.9766V51.7891C28.9551 50.8281 29.207 50.0547 29.7109 49.4688C30.2148 48.8828 30.8809 48.5898 31.709 48.5898C32.5371 48.5898 33.2031 48.8809 33.707 49.4629C34.2148 50.0449 34.4688 50.8203 34.4688 51.7891V51.9766C34.4688 52.9453 34.2148 53.7207 33.707 54.3027C33.2031 54.8848 32.5371 55.1758 31.709 55.1758C30.8809 55.1758 30.2148 54.8848 29.7109 54.3027C29.207 53.7207 28.9551 52.9453 28.9551 51.9766ZM29.6699 51.7246V52.0352C29.6699 52.7695 29.8457 53.3652 30.1973 53.8223C30.5488 54.2793 31.0527 54.5078 31.709 54.5078C32.3691 54.5078 32.875 54.2793 33.2266 53.8223C33.5781 53.3652 33.7539 52.7695 33.7539 52.0352V51.7246C33.7539 50.9863 33.5781 50.3906 33.2266 49.9375C32.875 49.4805 32.3691 49.252 31.709 49.252C31.0527 49.252 30.5488 49.4824 30.1973 49.9434C29.8457 50.4004 29.6699 50.9941 29.6699 51.7246ZM35.8105 57.4375V48.7656H36.4609L36.4785 49.5801C36.6621 49.3184 36.9336 49.0977 37.293 48.918C37.6562 48.7383 38.0664 48.6484 38.5234 48.6484C39.2891 48.6484 39.8887 48.9453 40.3223 49.5391C40.7559 50.1289 40.9727 50.8789 40.9727 51.7891V51.9766C40.9727 52.9141 40.752 53.6719 40.3105 54.25C39.873 54.8281 39.2891 55.1172 38.5586 55.1172C38.1016 55.1172 37.6992 55.041 37.3516 54.8887C37.0039 54.7363 36.7246 54.5312 36.5137 54.2734V57.4375H35.8105ZM36.5137 53.418C36.6465 53.6758 36.8711 53.9121 37.1875 54.127C37.5039 54.3418 37.8848 54.4492 38.3301 54.4492C38.9746 54.4492 39.4551 54.2266 39.7715 53.7812C40.0879 53.3359 40.2461 52.7539 40.2461 52.0352V51.7246C40.2461 50.9824 40.084 50.3965 39.7598 49.9668C39.4395 49.5332 38.9668 49.3164 38.3418 49.3164C37.9043 49.3164 37.5234 49.4219 37.1992 49.6328C36.8789 49.8438 36.6504 50.082 36.5137 50.3477V53.418ZM41.9395 51.9766V51.7891C41.9395 50.8281 42.1914 50.0547 42.6953 49.4688C43.1992 48.8828 43.8652 48.5898 44.6934 48.5898C45.5215 48.5898 46.1875 48.8809 46.6914 49.4629C47.1992 50.0449 47.4531 50.8203 47.4531 51.7891V51.9766C47.4531 52.9453 47.1992 53.7207 46.6914 54.3027C46.1875 54.8848 45.5215 55.1758 44.6934 55.1758C43.8652 55.1758 43.1992 54.8848 42.6953 54.3027C42.1914 53.7207 41.9395 52.9453 41.9395 51.9766ZM42.6543 51.7246V52.0352C42.6543 52.7695 42.8301 53.3652 43.1816 53.8223C43.5332 54.2793 44.0371 54.5078 44.6934 54.5078C45.3535 54.5078 45.8594 54.2793 46.2109 53.8223C46.5625 53.3652 46.7383 52.7695 46.7383 52.0352V51.7246C46.7383 50.9863 46.5625 50.3906 46.2109 49.9375C45.8594 49.4805 45.3535 49.252 44.6934 49.252C44.0371 49.252 43.5332 49.4824 43.1816 49.9434C42.8301 50.4004 42.6543 50.9941 42.6543 51.7246ZM47.8867 48.7656H48.6602L50.2422 53.3887C50.2969 53.5527 50.3457 53.7051 50.3887 53.8457C50.4355 53.9863 50.4766 54.1426 50.5117 54.3145H50.5703C50.6055 54.1426 50.6426 53.9844 50.6816 53.8398C50.7246 53.6953 50.7754 53.5449 50.834 53.3887L52.4219 48.7656H53.166L50.8984 55H50.1426L47.8867 48.7656ZM53.6172 51.9766V51.7891C53.6172 50.8203 53.8594 50.0449 54.3438 49.4629C54.832 48.8809 55.4648 48.5898 56.2422 48.5898C57.0117 48.5898 57.6094 48.8555 58.0352 49.3867C58.4648 49.9141 58.6816 50.6797 58.6855 51.6836V52.0176H53.9805V51.4199H57.9883V51.3848C57.9883 50.7129 57.8496 50.1855 57.5723 49.8027C57.2949 49.416 56.8281 49.2227 56.1719 49.2227C55.5938 49.2227 55.1367 49.457 54.8008 49.9258C54.4688 50.3945 54.3027 50.9941 54.3027 51.7246V52.0352C54.3027 52.7773 54.4824 53.3789 54.8418 53.8398C55.2051 54.3008 55.7324 54.5312 56.4238 54.5312C56.8145 54.5312 57.1484 54.4551 57.4258 54.3027C57.7031 54.1504 57.9434 53.9473 58.1465 53.6934L58.6387 54.1094C58.4395 54.4219 58.1504 54.6777 57.7715 54.877C57.3926 55.0762 56.9395 55.1758 56.4121 55.1758C55.5293 55.1758 54.8418 54.8848 54.3496 54.3027C53.8613 53.7207 53.6172 52.9453 53.6172 51.9766ZM59.834 55V48.7656H60.4961L60.5137 49.5801C60.6973 49.3145 60.9336 49.084 61.2227 48.8887C61.5156 48.6895 61.8594 48.5898 62.2539 48.5898C62.3594 48.5898 62.4609 48.5977 62.5586 48.6133C62.6602 48.6289 62.7383 48.6465 62.793 48.666V49.4102C62.6875 49.3906 62.5879 49.375 62.4941 49.3633C62.4004 49.3477 62.2988 49.3398 62.1895 49.3398C61.8184 49.3398 61.4883 49.4453 61.1992 49.6562C60.9102 49.8633 60.6895 50.1211 60.5371 50.4297V55H59.834ZM65.8867 49.416V48.7656H69.3613V49.416H65.8867ZM67.1172 53.3477V49.1348V49.0352V47.3125H67.8203V53.3594C67.8203 53.7852 67.8906 54.0859 68.0312 54.2617C68.1719 54.4336 68.3789 54.5195 68.6523 54.5195C68.7539 54.5195 68.8535 54.5098 68.9512 54.4902C69.0488 54.4668 69.1445 54.4395 69.2383 54.4082V55.0352C69.1602 55.0742 69.0527 55.1074 68.916 55.1348C68.7832 55.1621 68.6387 55.1758 68.4824 55.1758C68.0684 55.1758 67.7363 55.0293 67.4863 54.7363C67.2402 54.4434 67.1172 53.9805 67.1172 53.3477ZM70.1289 51.9766V51.7891C70.1289 50.8203 70.3711 50.0449 70.8555 49.4629C71.3438 48.8809 71.9766 48.5898 72.7539 48.5898C73.5234 48.5898 74.1211 48.8555 74.5469 49.3867C74.9766 49.9141 75.1934 50.6797 75.1973 51.6836V52.0176H70.4922V51.4199H74.5V51.3848C74.5 50.7129 74.3613 50.1855 74.084 49.8027C73.8066 49.416 73.3398 49.2227 72.6836 49.2227C72.1055 49.2227 71.6484 49.457 71.3125 49.9258C70.9805 50.3945 70.8145 50.9941 70.8145 51.7246V52.0352C70.8145 52.7773 70.9941 53.3789 71.3535 53.8398C71.7168 54.3008 72.2441 54.5312 72.9355 54.5312C73.3262 54.5312 73.6602 54.4551 73.9375 54.3027C74.2148 54.1504 74.4551 53.9473 74.6582 53.6934L75.1504 54.1094C74.9512 54.4219 74.6621 54.6777 74.2832 54.877C73.9043 55.0762 73.4512 55.1758 72.9238 55.1758C72.041 55.1758 71.3535 54.8848 70.8613 54.3027C70.373 53.7207 70.1289 52.9453 70.1289 51.9766ZM75.6191 55L77.8867 51.5488L77.9922 51.5371L79.7852 48.7656H80.5469L78.3965 52.0645L78.2852 52.0879L76.3809 55H75.6191ZM75.7422 48.7656H76.5859L78.3613 51.5371L78.4199 51.5664L80.6758 55H79.832L77.9453 52.0703L77.8926 52.0469L75.7422 48.7656ZM80.793 49.416V48.7656H84.2676V49.416H80.793ZM82.0234 53.3477V49.1348V49.0352V47.3125H82.7266V53.3594C82.7266 53.7852 82.7969 54.0859 82.9375 54.2617C83.0781 54.4336 83.2852 54.5195 83.5586 54.5195C83.6602 54.5195 83.7598 54.5098 83.8574 54.4902C83.9551 54.4668 84.0508 54.4395 84.1445 54.4082V55.0352C84.0664 55.0742 83.959 55.1074 83.8223 55.1348C83.6895 55.1621 83.5449 55.1758 83.3887 55.1758C82.9746 55.1758 82.6426 55.0293 82.3926 54.7363C82.1465 54.4434 82.0234 53.9805 82.0234 53.3477Z" fill="#F6F6F8"/>
<path d="M108.697 74L102 67L115 67L108.697 74Z" fill="#3F3A43"/>
</g>
<defs>
<filter id="filter0_d_1373_45700" x="0" y="0" width="217" height="82" filterUnits="userSpaceOnUse" color-interpolation-filters="sRGB">
<feFlood flood-opacity="0" result="BackgroundImageFix"/>
<feColorMatrix in="SourceAlpha" type="matrix" values="0 0 0 0 0 0 0 0 0 0 0 0 0 0 0 0 0 0 127 0" result="hardAlpha"/>
<feOffset dy="2"/>
<feGaussianBlur stdDeviation="3"/>
<feComposite in2="hardAlpha" operator="out"/>
<feColorMatrix type="matrix" values="0 0 0 0 0 0 0 0 0 0 0 0 0 0 0 0 0 0 0.25 0"/>
<feBlend mode="normal" in2="BackgroundImageFix" result="effect1_dropShadow_1373_45700"/>
<feBlend mode="normal" in="SourceGraphic" in2="effect1_dropShadow_1373_45700" result="shape"/>
</filter>
</defs>
</svg>
