<svg width="240" height="48" viewBox="0 0 240 48" fill="none" xmlns="http://www.w3.org/2000/svg">
<line x1="48" y1="25" x2="97" y2="25" stroke="#1DCBE7" stroke-width="2"/>
<line x1="144" y1="25" x2="193" y2="25" stroke="#1DCBE7" stroke-width="2"/>
<rect x="1" y="1" width="46" height="46" rx="23" fill="#3F3A43"/>
<mask id="mask0_1373_45674" style="mask-type:alpha" maskUnits="userSpaceOnUse" x="12" y="12" width="24" height="24">
<rect x="12" y="12" width="24" height="24" fill="#D9D9D9"/>
</mask>
<g mask="url(#mask0_1373_45674)">
<path d="M21.4546 30C21.3164 30 21.1869 29.9776 21.066 29.9329C20.9451 29.8881 20.8328 29.8121 20.7291 29.7047L16.2726 25.0872C16.0826 24.8904 15.9919 24.6353 16.0006 24.3221C16.0092 24.0089 16.1085 23.7539 16.2985 23.557C16.4885 23.3602 16.7304 23.2617 17.024 23.2617C17.3177 23.2617 17.5595 23.3602 17.7495 23.557L21.4546 27.396L30.2381 18.2953C30.4281 18.0984 30.6743 18 30.9766 18C31.2788 18 31.525 18.0984 31.715 18.2953C31.905 18.4922 32 18.7472 32 19.0604C32 19.3736 31.905 19.6286 31.715 19.8255L22.1801 29.7047C22.0765 29.8121 21.9642 29.8881 21.8433 29.9329C21.7224 29.9776 21.5928 30 21.4546 30Z" fill="#1DCBE7"/>
</g>
<rect x="1" y="1" width="46" height="46" rx="23" stroke="#1DCBE7" stroke-width="2"/>
<rect x="96" width="48" height="48" rx="24" fill="#1DCBE7"/>
<path d="M113.32 32.5V30.25L120.246 23.5703C120.902 22.9375 121.43 22.3242 121.828 21.7305C122.234 21.1367 122.438 20.5391 122.438 19.9375C122.438 19.2891 122.223 18.7852 121.793 18.4258C121.371 18.0586 120.73 17.875 119.871 17.875C118.996 17.875 118.312 18.1016 117.82 18.5547C117.336 19 117.078 19.6289 117.047 20.4414V20.957H113.273V20.582C113.273 18.9805 113.875 17.6641 115.078 16.6328C116.281 15.6016 117.879 15.0859 119.871 15.0859C121.91 15.0859 123.461 15.5234 124.523 16.3984C125.594 17.2656 126.129 18.3633 126.129 19.6914C126.129 20.8711 125.828 21.8789 125.227 22.7148C124.633 23.5508 123.836 24.4258 122.836 25.3398L118.184 29.6758H126.562V32.5H113.32Z" fill="#3F3A43"/>
<rect x="193" y="1" width="46" height="46" rx="23" fill="#3F3A43"/>
<path d="M209.074 27.7188V27.4844H212.859V27.6953C212.859 28.4844 213.113 29.0898 213.621 29.5117C214.137 29.9258 214.883 30.1328 215.859 30.1328C216.797 30.1328 217.531 29.9102 218.062 29.4648C218.602 29.0195 218.871 28.3555 218.871 27.4727C218.871 26.6211 218.559 25.9883 217.934 25.5742C217.316 25.1602 216.465 24.9531 215.379 24.9531H213.574V22.3164H215.262C216.293 22.3164 217.059 22.1055 217.559 21.6836C218.059 21.2539 218.309 20.6797 218.309 19.9609C218.309 19.2578 218.09 18.7266 217.652 18.3672C217.215 18 216.602 17.8164 215.812 17.8164C215.023 17.8164 214.395 18.0117 213.926 18.4023C213.465 18.7852 213.234 19.3203 213.234 20.0078V20.1602H209.449V20.0078C209.449 18.6406 210.027 17.4805 211.184 16.5273C212.348 15.5664 213.918 15.0859 215.895 15.0859C217.973 15.0859 219.516 15.5234 220.523 16.3984C221.531 17.2734 222.035 18.3359 222.035 19.5859C222.035 20.5156 221.789 21.3164 221.297 21.9883C220.812 22.6602 220.07 23.168 219.07 23.5117V23.5586C220.156 23.793 221.023 24.2695 221.672 24.9883C222.32 25.707 222.645 26.6016 222.645 27.6719C222.645 29.2266 222.023 30.4805 220.781 31.4336C219.547 32.3789 217.902 32.8516 215.848 32.8516C213.699 32.8516 212.035 32.3828 210.855 31.4453C209.684 30.5 209.09 29.2578 209.074 27.7188Z" fill="#1DCBE7"/>
<rect x="193" y="1" width="46" height="46" rx="23" stroke="#1DCBE7" stroke-width="2"/>
</svg>
